<svg xmlns="http://www.w3.org/2000/svg" xmlns:xlink="http://www.w3.org/1999/xlink" viewBox="0 0 750 440.36499">
  <defs>
    <style>
      .cls-1, .cls-17, .cls-45, .cls-96, .cls-97, .cls-98 {
        fill: none;
      }

      .cls-2 {
        isolation: isolate;
      }

      .cls-3 {
        fill: #f8fafb;
      }

      .cls-4 {
        clip-path: url(#clip-path);
      }

      .cls-5 {
        fill: url(#New_Gradient_Swatch_18);
      }

      .cls-6 {
        fill: url(#linear-gradient);
      }

      .cls-7 {
        fill: url(#linear-gradient-2);
      }

      .cls-8 {
        fill: url(#linear-gradient-3);
      }

      .cls-9 {
        fill: url(#linear-gradient-4);
      }

      .cls-10 {
        fill: url(#linear-gradient-5);
      }

      .cls-11 {
        fill: url(#linear-gradient-6);
      }

      .cls-12 {
        fill: url(#linear-gradient-7);
      }

      .cls-13 {
        fill: url(#linear-gradient-8);
      }

      .cls-14 {
        fill: #ff7936;
      }

      .cls-15 {
        fill: url(#linear-gradient-9);
      }

      .cls-16 {
        fill: #c2d2dc;
      }

      .cls-16, .cls-17, .cls-24, .cls-43, .cls-46 {
        mix-blend-mode: multiply;
      }

      .cls-17 {
        stroke: #a4b6c5;
        stroke-width: 3px;
      }

      .cls-17, .cls-96, .cls-97, .cls-98 {
        stroke-linecap: round;
      }

      .cls-17, .cls-45, .cls-96, .cls-97, .cls-98 {
        stroke-miterlimit: 10;
      }

      .cls-18 {
        fill: url(#New_Gradient_Swatch_15);
      }

      .cls-19 {
        fill: url(#linear-gradient-10);
      }

      .cls-20 {
        fill: url(#New_Gradient_Swatch_15-2);
      }

      .cls-21 {
        fill: url(#New_Gradient_Swatch_15-3);
      }

      .cls-22 {
        fill: url(#linear-gradient-11);
      }

      .cls-23 {
        fill: url(#linear-gradient-12);
      }

      .cls-24 {
        fill: #a4b6c5;
      }

      .cls-25 {
        fill: url(#New_Gradient_Swatch_15-4);
      }

      .cls-26 {
        fill: url(#New_Gradient_Swatch_15-5);
      }

      .cls-27 {
        fill: url(#New_Gradient_Swatch_15-6);
      }

      .cls-28 {
        fill: url(#New_Gradient_Swatch_18-2);
      }

      .cls-29 {
        fill: url(#New_Gradient_Swatch_5);
      }

      .cls-30 {
        fill: url(#New_Gradient_Swatch_15-7);
      }

      .cls-31 {
        fill: url(#New_Gradient_Swatch_18-3);
      }

      .cls-32 {
        fill: #fff;
      }

      .cls-33, .cls-46 {
        fill: #dbe7ee;
      }

      .cls-34 {
        fill: url(#New_Gradient_Swatch_6);
      }

      .cls-35 {
        fill: url(#New_Gradient_Swatch_6-2);
      }

      .cls-36 {
        fill: url(#New_Gradient_Swatch_17);
      }

      .cls-37 {
        fill: url(#New_Gradient_Swatch_6-3);
      }

      .cls-38 {
        fill: url(#New_Gradient_Swatch_17-2);
      }

      .cls-39 {
        fill: url(#New_Gradient_Swatch_6-4);
      }

      .cls-40 {
        fill: url(#New_Gradient_Swatch_6-5);
      }

      .cls-41 {
        fill: url(#New_Gradient_Swatch_6-6);
      }

      .cls-42 {
        fill: url(#linear-gradient-13);
      }

      .cls-44 {
        fill: #758c9d;
      }

      .cls-45 {
        stroke-width: 2px;
        stroke: url(#New_Gradient_Swatch_17-3);
      }

      .cls-47 {
        fill: url(#New_Gradient_Swatch_6-7);
      }

      .cls-48 {
        fill: url(#New_Gradient_Swatch_6-8);
      }

      .cls-49 {
        fill: #ede1d1;
      }

      .cls-50 {
        fill: url(#New_Gradient_Swatch_6-9);
      }

      .cls-51 {
        fill: url(#New_Gradient_Swatch_15-8);
      }

      .cls-52 {
        fill: url(#New_Gradient_Swatch_15-9);
      }

      .cls-53 {
        fill: url(#New_Gradient_Swatch_15-10);
      }

      .cls-54 {
        fill: #fad05b;
      }

      .cls-55 {
        fill: url(#linear-gradient-14);
      }

      .cls-56 {
        fill: url(#linear-gradient-15);
      }

      .cls-57 {
        fill: url(#linear-gradient-16);
      }

      .cls-58 {
        fill: url(#linear-gradient-17);
      }

      .cls-59 {
        fill: #ea9a26;
      }

      .cls-60 {
        fill: url(#New_Gradient_Swatch_8);
      }

      .cls-61 {
        fill: url(#New_Gradient_Swatch_8-2);
      }

      .cls-62 {
        fill: url(#New_Gradient_Swatch_8-3);
      }

      .cls-63 {
        fill: #eaa74e;
      }

      .cls-64 {
        fill: #fab03c;
      }

      .cls-65 {
        fill: url(#New_Gradient_Swatch_8-4);
      }

      .cls-66 {
        fill: url(#New_Gradient_Swatch_8-5);
      }

      .cls-67 {
        fill: url(#linear-gradient-18);
      }

      .cls-68 {
        fill: url(#radial-gradient);
      }

      .cls-69, .cls-79 {
        mix-blend-mode: screen;
      }

      .cls-69 {
        fill: url(#linear-gradient-19);
      }

      .cls-70 {
        fill: #57b7ff;
      }

      .cls-71 {
        fill: #95d2ff;
      }

      .cls-72 {
        fill: #4898d3;
      }

      .cls-73 {
        fill: url(#New_Gradient_Swatch_8-6);
      }

      .cls-74, .cls-75 {
        fill: #eff4f6;
      }

      .cls-74 {
        opacity: 0.4;
      }

      .cls-75 {
        opacity: 0.2;
      }

      .cls-76 {
        fill: url(#linear-gradient-20);
      }

      .cls-77 {
        fill: url(#New_Gradient_Swatch_8-7);
      }

      .cls-78 {
        fill: url(#New_Gradient_Swatch_8-8);
      }

      .cls-80 {
        fill: #56548b;
      }

      .cls-81 {
        fill: url(#linear-gradient-21);
      }

      .cls-82 {
        fill: url(#New_Gradient_Swatch_15-11);
      }

      .cls-83 {
        fill: url(#New_Gradient_Swatch_8-9);
      }

      .cls-84 {
        fill: url(#New_Gradient_Swatch_5-2);
      }

      .cls-85 {
        fill: url(#linear-gradient-22);
      }

      .cls-86 {
        fill: url(#New_Gradient_Swatch_5-3);
      }

      .cls-87 {
        fill: url(#linear-gradient-23);
      }

      .cls-88 {
        fill: url(#linear-gradient-24);
      }

      .cls-89 {
        fill: url(#New_Gradient_Swatch_15-12);
      }

      .cls-90 {
        fill: url(#New_Gradient_Swatch_6-10);
      }

      .cls-91 {
        fill: url(#New_Gradient_Swatch_8-10);
      }

      .cls-92 {
        fill: url(#New_Gradient_Swatch_4);
      }

      .cls-93 {
        fill: url(#New_Gradient_Swatch_4-2);
      }

      .cls-94 {
        fill: url(#New_Gradient_Swatch_4-3);
      }

      .cls-95 {
        fill: url(#New_Gradient_Swatch_18-4);
      }

      .cls-96, .cls-97, .cls-98 {
        stroke-width: 1.10542px;
      }

      .cls-96 {
        stroke: url(#New_Gradient_Swatch_6-11);
      }

      .cls-97 {
        stroke: url(#New_Gradient_Swatch_4-4);
      }

      .cls-98 {
        stroke: url(#New_Gradient_Swatch_15-13);
      }

      .cls-99 {
        fill: url(#linear-gradient-25);
      }

      .cls-100 {
        fill: #f9dfbb;
      }

      .cls-101 {
        fill: #e9e5d9;
      }
    </style>
    <clipPath id="clip-path">
      <rect class="cls-1" y="-59.63501" width="750" height="500"/>
    </clipPath>
    <linearGradient id="New_Gradient_Swatch_18" data-name="New Gradient Swatch 18" x1="344.0935" y1="-88.59769" x2="847.50985" y2="275.28498" gradientUnits="userSpaceOnUse">
      <stop offset="0" stop-color="#eff4f6"/>
      <stop offset="0.16546" stop-color="#e2ebf7"/>
      <stop offset="0.46788" stop-color="#c1d2f9"/>
      <stop offset="0.49497" stop-color="#bed0f9"/>
      <stop offset="1" stop-color="#eff4f6"/>
    </linearGradient>
    <linearGradient id="linear-gradient" x1="426.20613" y1="-61.45891" x2="929.62248" y2="302.42376" gradientUnits="userSpaceOnUse">
      <stop offset="0" stop-color="#eff4f6"/>
      <stop offset="0.12567" stop-color="#e2ebf6"/>
      <stop offset="0.35521" stop-color="#c1d3f7"/>
      <stop offset="0.49497" stop-color="#aac2f7"/>
      <stop offset="1" stop-color="#eff4f6"/>
    </linearGradient>
    <linearGradient id="linear-gradient-2" x1="285.91913" y1="435.45086" x2="569.50826" y2="50.94466" gradientUnits="userSpaceOnUse">
      <stop offset="0" stop-color="#9f6aff"/>
      <stop offset="0.1798" stop-color="#955dff"/>
      <stop offset="0.50959" stop-color="#7c3cff"/>
      <stop offset="0.9497" stop-color="#5207ff"/>
      <stop offset="1" stop-color="#4d00ff"/>
    </linearGradient>
    <linearGradient id="linear-gradient-3" x1="656.11573" y1="-269.7216" x2="485.54404" y2="289.37619" gradientTransform="translate(-7.11948 43.68842) rotate(-4.74366)" xlink:href="#linear-gradient-2"/>
    <linearGradient id="linear-gradient-4" x1="668.84809" y1="-185.53532" x2="507.89205" y2="342.04437" xlink:href="#linear-gradient-2"/>
    <linearGradient id="linear-gradient-5" x1="548.69722" y1="91.3099" x2="668.73302" y2="-71.44145" gradientTransform="translate(5.44524 -81.63474) rotate(7.27924)" xlink:href="#linear-gradient-2"/>
    <linearGradient id="linear-gradient-6" x1="557.66243" y1="77.80032" x2="648.79724" y2="-45.76541" xlink:href="#linear-gradient-2"/>
    <linearGradient id="linear-gradient-7" x1="-8029.27899" y1="-8069.12622" x2="-7985.49192" y2="-7993.28479" gradientTransform="translate(5037.51593 4652.49838) scale(0.55906)" gradientUnits="userSpaceOnUse">
      <stop offset="0" stop-color="#7362ff"/>
      <stop offset="0.41826" stop-color="#713cff"/>
      <stop offset="1" stop-color="#6d00ff"/>
    </linearGradient>
    <linearGradient id="linear-gradient-8" x1="-8117.37979" y1="-8069.12282" x2="-8073.59282" y2="-7993.28155" gradientTransform="translate(5048.60316 4683.73379) scale(0.55906)" xlink:href="#linear-gradient-7"/>
    <linearGradient id="linear-gradient-9" x1="-8098.87098" y1="-8064.81472" x2="-8005.34166" y2="-7902.81718" gradientTransform="translate(6869.55499 802.88296) rotate(-39.28724) scale(0.55906)" gradientUnits="userSpaceOnUse">
      <stop offset="0" stop-color="#7588ff"/>
      <stop offset="0.26263" stop-color="#7a79ff"/>
      <stop offset="0.76917" stop-color="#8950ff"/>
      <stop offset="1" stop-color="#903cff"/>
    </linearGradient>
    <linearGradient id="New_Gradient_Swatch_15" data-name="New Gradient Swatch 15" x1="-8071.46622" y1="-7983.33607" x2="-8030.52908" y2="-7912.43085" gradientTransform="translate(6869.55499 802.88296) rotate(-39.28724) scale(0.55906)" gradientUnits="userSpaceOnUse">
      <stop offset="0" stop-color="#eece64"/>
      <stop offset="1" stop-color="#ff7159"/>
    </linearGradient>
    <linearGradient id="linear-gradient-10" x1="-8066.61289" y1="-7993.54631" x2="-8034.74281" y2="-7938.34572" gradientTransform="translate(5067.15938 4659.51982) scale(0.55906)" gradientUnits="userSpaceOnUse">
      <stop offset="0" stop-color="#eece64"/>
      <stop offset="1" stop-color="#fa8e5c"/>
    </linearGradient>
    <linearGradient id="New_Gradient_Swatch_15-2" x1="-8091.82209" y1="-8041.83788" x2="-8064.15885" y2="-7993.92373" xlink:href="#New_Gradient_Swatch_15"/>
    <linearGradient id="New_Gradient_Swatch_15-3" x1="-8037.83737" y1="-8041.83744" x2="-8010.175" y2="-7993.92481" xlink:href="#New_Gradient_Swatch_15"/>
    <linearGradient id="linear-gradient-11" x1="-8086.77109" y1="-8051.37768" x2="-8068.49905" y2="-8019.72959" gradientTransform="translate(5045.98948 4677.84225) scale(0.55906)" xlink:href="#linear-gradient-10"/>
    <linearGradient id="linear-gradient-12" x1="-8032.78671" y1="-8051.37979" x2="-8014.51465" y2="-8019.73164" gradientTransform="matrix(0.55906, 0.00002, -0.00002, 0.55906, 5039.16741, 4658.73092)" xlink:href="#linear-gradient-10"/>
    <linearGradient id="New_Gradient_Swatch_15-4" x1="-7999.05179" y1="-7965.49187" x2="-7978.48751" y2="-7929.87349" xlink:href="#New_Gradient_Swatch_15"/>
    <linearGradient id="New_Gradient_Swatch_15-5" x1="-8123.49824" y1="-7965.90549" x2="-8102.93503" y2="-7930.28895" xlink:href="#New_Gradient_Swatch_15"/>
    <linearGradient id="New_Gradient_Swatch_15-6" x1="654.01698" y1="68.53065" x2="633.49765" y2="182.95613" gradientTransform="matrix(1, 0, 0, 1, 0, 0)" xlink:href="#New_Gradient_Swatch_15"/>
    <linearGradient id="New_Gradient_Swatch_18-2" x1="693.6813" y1="103.10169" x2="733.1947" y2="103.10169" xlink:href="#New_Gradient_Swatch_18"/>
    <linearGradient id="New_Gradient_Swatch_5" data-name="New Gradient Swatch 5" x1="659.03475" y1="153.51479" x2="659.03475" y2="204.06453" gradientUnits="userSpaceOnUse">
      <stop offset="0" stop-color="#c5def1"/>
      <stop offset="0.99896" stop-color="#9ab6fb"/>
    </linearGradient>
    <linearGradient id="New_Gradient_Swatch_15-7" x1="667.4684" y1="203.92212" x2="666.01997" y2="200.66316" gradientTransform="matrix(1, 0, 0, 1, 0, 0)" xlink:href="#New_Gradient_Swatch_15"/>
    <linearGradient id="New_Gradient_Swatch_18-3" x1="554.0621" y1="146.49089" x2="591.1051" y2="146.49089" xlink:href="#New_Gradient_Swatch_18"/>
    <linearGradient id="New_Gradient_Swatch_6" data-name="New Gradient Swatch 6" x1="634.8985" y1="145.23304" x2="674.6946" y2="145.23304" gradientUnits="userSpaceOnUse">
      <stop offset="0" stop-color="#de697b"/>
      <stop offset="1" stop-color="#bd2773"/>
    </linearGradient>
    <linearGradient id="New_Gradient_Swatch_6-2" x1="495.5862" y1="25.52006" x2="518.1368" y2="25.52006" xlink:href="#New_Gradient_Swatch_6"/>
    <linearGradient id="New_Gradient_Swatch_17" data-name="New Gradient Swatch 17" x1="502.4425" y1="33.29029" x2="512.7935" y2="33.29029" gradientUnits="userSpaceOnUse">
      <stop offset="0" stop-color="#de697b"/>
      <stop offset="1" stop-color="#841873"/>
    </linearGradient>
    <linearGradient id="New_Gradient_Swatch_6-3" x1="530.0983" y1="34.83041" x2="550.46434" y2="34.83041" xlink:href="#New_Gradient_Swatch_6"/>
    <linearGradient id="New_Gradient_Swatch_17-2" x1="531.2844" y1="39.92924" x2="543.0451" y2="39.92924" xlink:href="#New_Gradient_Swatch_17"/>
    <linearGradient id="New_Gradient_Swatch_6-4" x1="522.4028" y1="96.8675" x2="535.99693" y2="96.8675" xlink:href="#New_Gradient_Swatch_6"/>
    <linearGradient id="New_Gradient_Swatch_6-5" x1="500.72999" y1="34.94319" x2="532.45818" y2="89.89803" xlink:href="#New_Gradient_Swatch_6"/>
    <linearGradient id="New_Gradient_Swatch_6-6" x1="482.73322" y1="87.0713" x2="497.8276" y2="87.0713" xlink:href="#New_Gradient_Swatch_6"/>
    <linearGradient id="linear-gradient-13" x1="498.1867" y1="44.01464" x2="535.00033" y2="80.82827" gradientTransform="matrix(0.22337, 0.97473, -0.97473, 0.22337, 462.04382, -455.06248)" gradientUnits="userSpaceOnUse">
      <stop offset="0" stop-color="#bed0f9"/>
      <stop offset="0.18783" stop-color="#d2dff8"/>
      <stop offset="0.4156" stop-color="#e2ebf7"/>
      <stop offset="0.6696" stop-color="#ecf2f6"/>
      <stop offset="1" stop-color="#eff4f6"/>
    </linearGradient>
    <linearGradient id="New_Gradient_Swatch_17-3" x1="493.18672" y1="75.93538" x2="540.00033" y2="48.90752" gradientTransform="matrix(0.22337, 0.97473, -0.97473, 0.22337, 462.04382, -455.06248)" xlink:href="#New_Gradient_Swatch_17"/>
    <linearGradient id="New_Gradient_Swatch_6-7" x1="515.4158" y1="59.52879" x2="523.0856" y2="59.52879" xlink:href="#New_Gradient_Swatch_6"/>
    <linearGradient id="New_Gradient_Swatch_6-8" x1="513.99297" y1="62.42113" x2="519.19063" y2="62.42113" xlink:href="#New_Gradient_Swatch_6"/>
    <linearGradient id="New_Gradient_Swatch_6-9" x1="601.03355" y1="46.61373" x2="603.5163" y2="58.61366" xlink:href="#New_Gradient_Swatch_6"/>
    <linearGradient id="New_Gradient_Swatch_15-8" x1="608.4475" y1="55.52154" x2="622.5467" y2="55.52154" gradientTransform="matrix(1, 0, 0, 1, 0, 0)" xlink:href="#New_Gradient_Swatch_15"/>
    <linearGradient id="New_Gradient_Swatch_15-9" x1="607.2773" y1="49.86904" x2="621.6107" y2="49.86904" gradientTransform="matrix(1, 0, 0, 1, 0, 0)" xlink:href="#New_Gradient_Swatch_15"/>
    <linearGradient id="New_Gradient_Swatch_15-10" x1="606.2969" y1="44.11389" x2="620.4072" y2="44.11389" gradientTransform="matrix(1, 0, 0, 1, 0, 0)" xlink:href="#New_Gradient_Swatch_15"/>
    <linearGradient id="linear-gradient-14" x1="621.301" y1="42.93199" x2="717.5989" y2="42.93199" gradientUnits="userSpaceOnUse">
      <stop offset="0" stop-color="#669eff"/>
      <stop offset="0.3688" stop-color="#5d78ff"/>
      <stop offset="1" stop-color="#4d2fff"/>
    </linearGradient>
    <linearGradient id="linear-gradient-15" x1="700.31477" y1="4.40541" x2="626.38391" y2="77.78452" xlink:href="#linear-gradient-14"/>
    <linearGradient id="linear-gradient-16" x1="731.85193" y1="25.51124" x2="732.47263" y2="28.82161" xlink:href="#linear-gradient-14"/>
    <linearGradient id="linear-gradient-17" x1="721.65035" y1="24.86529" x2="723.71932" y2="33.55499" gradientUnits="userSpaceOnUse">
      <stop offset="0" stop-color="#eff4f6"/>
      <stop offset="0.33428" stop-color="#e2ebf7"/>
      <stop offset="0.94525" stop-color="#c1d2f9"/>
      <stop offset="1" stop-color="#bed0f9"/>
    </linearGradient>
    <linearGradient id="New_Gradient_Swatch_8" data-name="New Gradient Swatch 8" x1="-8121.27876" y1="-7993.93671" x2="-7980.7211" y2="-7993.93671" gradientTransform="translate(9318.19262 4594.72161) rotate(-18.89544) scale(0.86956)" gradientUnits="userSpaceOnUse">
      <stop offset="0" stop-color="#4d5deb"/>
      <stop offset="0.32699" stop-color="#4136ea"/>
      <stop offset="1" stop-color="#420086"/>
    </linearGradient>
    <linearGradient id="New_Gradient_Swatch_8-2" x1="-8077.04957" y1="-8078.23886" x2="-8024.94985" y2="-7987.99948" xlink:href="#New_Gradient_Swatch_8"/>
    <linearGradient id="New_Gradient_Swatch_8-3" x1="-8155.19743" y1="-8013.06323" x2="-7946.80206" y2="-8013.06323" xlink:href="#New_Gradient_Swatch_8"/>
    <linearGradient id="New_Gradient_Swatch_8-4" x1="-8060.15805" y1="-8033.11919" x2="-8041.84137" y2="-8033.11919" xlink:href="#New_Gradient_Swatch_8"/>
    <linearGradient id="New_Gradient_Swatch_8-5" x1="441.39787" y1="141.74266" x2="450.34672" y2="141.74266" gradientTransform="matrix(1, 0, 0, 1, 0, 0)" xlink:href="#New_Gradient_Swatch_8"/>
    <linearGradient id="linear-gradient-18" x1="425.1259" y1="139.92856" x2="441.0815" y2="139.92856" gradientUnits="userSpaceOnUse">
      <stop offset="0" stop-color="#74daff"/>
      <stop offset="0.14462" stop-color="#74cdfe"/>
      <stop offset="0.40999" stop-color="#73acfa"/>
      <stop offset="0.76367" stop-color="#7277f4"/>
      <stop offset="1" stop-color="#714fef"/>
    </linearGradient>
    <radialGradient id="radial-gradient" cx="434.9939" cy="165.15275" r="26.53848" xlink:href="#New_Gradient_Swatch_6"/>
    <linearGradient id="linear-gradient-19" x1="427.21899" y1="160.99771" x2="433.32471" y2="171.57313" gradientUnits="userSpaceOnUse">
      <stop offset="0" stop-color="#4136ea"/>
      <stop offset="1" stop-color="#19155a"/>
    </linearGradient>
    <linearGradient id="New_Gradient_Swatch_8-6" x1="604.56887" y1="319.64204" x2="600.70682" y2="325.84891" gradientTransform="translate(478.1894 -349.34687) rotate(51.33463)" xlink:href="#New_Gradient_Swatch_8"/>
    <linearGradient id="linear-gradient-20" x1="630.39173" y1="337.17091" x2="624.32276" y2="345.17091" gradientTransform="translate(502.278 -360.91808) rotate(51.33608)" gradientUnits="userSpaceOnUse">
      <stop offset="0" stop-color="#9676ef"/>
      <stop offset="0.2426" stop-color="#896af2"/>
      <stop offset="0.68567" stop-color="#684af9"/>
      <stop offset="1" stop-color="#4d2fff"/>
    </linearGradient>
    <linearGradient id="New_Gradient_Swatch_8-7" x1="649.67837" y1="353.95087" x2="642.91974" y2="361.67503" gradientTransform="matrix(1, 0, 0, 1, 0, 0)" xlink:href="#New_Gradient_Swatch_8"/>
    <linearGradient id="New_Gradient_Swatch_8-8" x1="538.73957" y1="295.53484" x2="598.10997" y2="295.53484" gradientTransform="matrix(1, 0, 0, 1, 0, 0)" xlink:href="#New_Gradient_Swatch_8"/>
    <linearGradient id="linear-gradient-21" x1="-8056.56839" y1="-8024.86753" x2="-8045.43105" y2="-8024.86753" gradientTransform="translate(4763.24715 10500.71322) rotate(22.0557)" gradientUnits="userSpaceOnUse">
      <stop offset="0" stop-color="#de697b"/>
      <stop offset="1" stop-color="#912773"/>
    </linearGradient>
    <linearGradient id="New_Gradient_Swatch_15-11" x1="-8056.56517" y1="-7971.49632" x2="-8045.43422" y2="-7971.49632" gradientTransform="translate(4763.24715 10500.71322) rotate(22.0557)" xlink:href="#New_Gradient_Swatch_15"/>
    <linearGradient id="New_Gradient_Swatch_8-9" x1="-8056.00501" y1="-7947.25777" x2="-8045.99279" y2="-7947.25777" gradientTransform="translate(4763.24715 10500.71322) rotate(22.0557)" xlink:href="#New_Gradient_Swatch_8"/>
    <linearGradient id="New_Gradient_Swatch_5-2" x1="310.8654" y1="125.13904" x2="380.66875" y2="125.13904" xlink:href="#New_Gradient_Swatch_5"/>
    <linearGradient id="linear-gradient-22" x1="309.1704" y1="123.34914" x2="378.97375" y2="123.34914" gradientUnits="userSpaceOnUse">
      <stop offset="0" stop-color="#eff4f6"/>
      <stop offset="0.47082" stop-color="#e2ebf7"/>
      <stop offset="1" stop-color="#cfddf8"/>
    </linearGradient>
    <linearGradient id="New_Gradient_Swatch_5-3" x1="318.46548" y1="145.62455" x2="331.79835" y2="145.62455" xlink:href="#New_Gradient_Swatch_5"/>
    <linearGradient id="linear-gradient-23" x1="313.15089" y1="128.90729" x2="326.48367" y2="128.90729" gradientUnits="userSpaceOnUse">
      <stop offset="0" stop-color="#68c7ff"/>
      <stop offset="0.18787" stop-color="#66c2ff"/>
      <stop offset="0.40886" stop-color="#5fb4ff"/>
      <stop offset="0.64651" stop-color="#539cff"/>
      <stop offset="0.89435" stop-color="#437bff"/>
      <stop offset="1" stop-color="#3b6bff"/>
    </linearGradient>
    <linearGradient id="linear-gradient-24" x1="322.24542" y1="111.62622" x2="335.57826" y2="111.62622" gradientUnits="userSpaceOnUse">
      <stop offset="0" stop-color="#9676ef"/>
      <stop offset="0.24806" stop-color="#9569f2"/>
      <stop offset="0.70118" stop-color="#9148f9"/>
      <stop offset="1" stop-color="#8e2fff"/>
    </linearGradient>
    <linearGradient id="New_Gradient_Swatch_15-12" x1="338.18925" y1="101.75494" x2="351.5221" y2="101.75494" gradientTransform="matrix(1, 0, 0, 1, 0, 0)" xlink:href="#New_Gradient_Swatch_15"/>
    <linearGradient id="New_Gradient_Swatch_6-10" x1="354.7143" y1="104.62039" x2="368.04715" y2="104.62039" xlink:href="#New_Gradient_Swatch_6"/>
    <linearGradient id="New_Gradient_Swatch_8-10" x1="361.70984" y1="119.38485" x2="375.04266" y2="119.38485" gradientTransform="matrix(1, 0, 0, 1, 0, 0)" xlink:href="#New_Gradient_Swatch_8"/>
    <linearGradient id="New_Gradient_Swatch_4" data-name="New Gradient Swatch 4" x1="-8074.79799" y1="-8044.64945" x2="-8026.18867" y2="-7960.45562" gradientTransform="translate(4152.15408 12634.40034) rotate(28.5855) scale(1.15431)" gradientUnits="userSpaceOnUse">
      <stop offset="0" stop-color="#68abff"/>
      <stop offset="0.2311" stop-color="#65a6ff"/>
      <stop offset="0.50288" stop-color="#5b98ff"/>
      <stop offset="0.79394" stop-color="#4a80ff"/>
      <stop offset="1" stop-color="#3b6bff"/>
    </linearGradient>
    <linearGradient id="New_Gradient_Swatch_4-2" x1="-8082.84259" y1="-8000.59898" x2="-8077.832" y2="-8000.59898" xlink:href="#New_Gradient_Swatch_4"/>
    <linearGradient id="New_Gradient_Swatch_4-3" x1="-8050.95604" y1="-7970.13156" x2="-8050.95604" y2="-7958.8205" xlink:href="#New_Gradient_Swatch_4"/>
    <linearGradient id="New_Gradient_Swatch_18-4" x1="-8058.50256" y1="-7948.69788" x2="-8039.95169" y2="-7980.82894" gradientTransform="translate(4152.15408 12634.40034) rotate(28.5855) scale(1.15431)" xlink:href="#New_Gradient_Swatch_18"/>
    <linearGradient id="New_Gradient_Swatch_6-11" x1="7757.79934" y1="-7561.59244" x2="7768.55323" y2="-7561.59244" gradientTransform="translate(11885.30827 12151.39909) rotate(-89.0437) scale(1.50991)" xlink:href="#New_Gradient_Swatch_6"/>
    <linearGradient id="New_Gradient_Swatch_4-4" x1="7383.44266" y1="-8033.71639" x2="7391.03688" y2="-8033.71639" gradientTransform="matrix(-1.1464, -1.4408, 1.4408, -1.1464, 20677.41762, 1663.13292)" xlink:href="#New_Gradient_Swatch_4"/>
    <linearGradient id="New_Gradient_Swatch_15-13" x1="8011.16098" y1="-7732.53363" x2="8018.75492" y2="-7732.53363" gradientTransform="translate(8480.51094 19208.97262) rotate(-68.56726) scale(1.84123)" xlink:href="#New_Gradient_Swatch_15"/>
    <linearGradient id="linear-gradient-25" x1="480.2648" y1="130.45974" x2="519.8767" y2="130.45974" gradientUnits="userSpaceOnUse">
      <stop offset="0" stop-color="#eee064"/>
      <stop offset="1" stop-color="#f6aa5f"/>
    </linearGradient>
  </defs>
  <title>4053036</title>
  <g class="cls-2">
    <g id="BACKGROUND">
      <g>
        <rect class="cls-3" y="-59.63501" width="750" height="500"/>
        <g class="cls-4">
          <path class="cls-5" d="M844.6173-107.00331v506.5137c-21.5854-21.2222-48.792-36.5465-79.2673-40.0229-73.3873-8.406-138.5586,51.3172-212.4298,51.6112-45.4539.1903-90.2333-24.4046-113.0296-62.0581-22.9172-37.861-24.9926-86.3589-64.7734-113.064-32.8278-22.0351-79.68272-37.1345-93.46762-76.1197-7.8524-22.2081-6.9531-46.2322-5.8115-69.6165,1.1588-23.3669,2.4214-47.3218-4.7737-69.7202-6.3649-19.8385-18.9565-37.2037-29.9567-55.1051-11.0175-17.8841-20.807-37.4804-20.5995-58.2011a52.06783,52.06783,0,0,1,2.0582-14.2173Z"/>
          <path class="cls-6" d="M844.6173-139.21771V367.296c-21.5854-21.2221-48.792-36.5465-79.2673-40.0229-73.3873-8.4059-138.5586,51.3172-212.4298,51.6112-45.4539.1903-90.2333-24.4046-113.0296-62.0581-22.9172-37.861-24.9926-86.3589-64.7734-113.064-32.8278-22.0351-79.68272-37.1345-93.46762-76.1197-7.8524-22.2081-6.9531-46.2322-5.8115-69.6165,1.1588-23.3669,2.4214-47.3218-4.7737-69.7202-6.3649-19.8385-18.9565-37.2037-29.9567-55.1051-11.0175-17.8841-20.807-37.4804-20.5995-58.2011a52.06783,52.06783,0,0,1,2.0582-14.2173Z"/>
          <path class="cls-7" d="M750-59.635v403.3525c-17.1891-16.8998-38.8546-29.1031-63.123-31.8715-58.4406-6.6939-110.3385,40.8655-169.1644,41.0997-36.1958.1515-71.8544-19.4335-90.008-49.4172-12.5366-20.7062-16.9361-45.1665-29.3284-65.9262-15.5692-26.0815-42.6986-32.5189-65.9088-49.6342-13.09492-9.6562-24.55782-22.1481-30.43962-37.318-9.41478-24.2822-3.4933-51.4661-4.7361-77.48a140.05935,140.05935,0,0,0-18.3072-62.4532c-11.1689-19.5591-26.2252-34.7392-25.9819-59.0302a41.46444,41.46444,0,0,1,1.639-11.3217Z"/>
          <path class="cls-8" d="M343.1647-56.04741c-4.873,21.071-9.6306,42.7635-6.1345,64.2403,6.138,37.7016,46.2566,59.1127,72.4858,84.5284,31.7843,30.8014,25.7171,75.2304,40.3414,113.4078,14.5482,37.9688,51.2228,67.6717,92.5753,74.9534,65.4816,11.5445,132.7072-29.5487,196.5511-13.4588L708.8021-96.23951l-363.334,30.1378C344.716-62.73911,343.9396-59.38611,343.1647-56.04741Z"/>
          <path class="cls-9" d="M403.0319-50.35991c-6.226,19.4343-12.392,39.4621-10.7796,59.9309,2.8311,35.9321,38.8872,59.1956,61.5698,85.1416,27.4864,31.4438,18.3155,72.7502,29.0898,109.7916,10.719,36.8394,42.8897,67.6316,81.2082,77.7047,60.6762,15.9637,127.0983-17.4353,185.8799,2.675V-59.635H405.9821C405.0126-56.53161,404.021-53.43921,403.0319-50.35991Z"/>
          <path class="cls-10" d="M576.5504,24.91189c62.7874,25.3945,136.1497,8.1198,201.0098,20.9248l11.5652-90.5235L484.6516-83.58631C494.5764-36.27441,530.304,6.21849,576.5504,24.91189Z"/>
          <path class="cls-11" d="M596.6012,13.23529c49.7302,13.0839,103.319-6.985,153.3988-3.582V-59.635H516.9503C528.9772-24.95821,559.9732,3.60659,596.6012,13.23529Z"/>
        </g>
      </g>
    </g>
    <g id="OBJECTS">
      <g>
        <g>
          <g>
            <path class="cls-12" d="M558.16287,136.432h6.31479a3.68639,3.68639,0,0,1,3.68639,3.68639v46.50071a0,0,0,0,1,0,0H554.47657a0,0,0,0,1,0,0v-46.5008A3.6863,3.6863,0,0,1,558.16287,136.432Z" transform="translate(24.59709 391.95815) rotate(-39.28911)"/>
            <path class="cls-13" d="M520.04289,167.62118h6.31479a3.68636,3.68636,0,0,1,3.68636,3.68636v46.50071a0,0,0,0,1,0,0H516.3565a0,0,0,0,1,0,0V171.30758A3.68639,3.68639,0,0,1,520.04289,167.62118Z" transform="translate(-3.7677 374.87465) rotate(-39.2897)"/>
          </g>
          <path class="cls-14" d="M543.86,156.91219l-1.7603,1.4403-4.7876-5.8516a4.33247,4.33247,0,0,0-6.0899-.6089l-11.5087,9.4161a4.3331,4.3331,0,0,0-.6094,6.0903l4.7876,5.8515-1.7603,1.4402-4.7876-5.8515a6.6098,6.6098,0,0,1,.9295-9.2908l11.5086-9.4161a6.6097,6.6097,0,0,1,9.2905.929Z"/>
          <path class="cls-15" d="M569.1161,152.43149l40.3241,49.2851a8.36594,8.36594,0,0,1-1.1827,11.7727l-43.4229,35.5278a8.36422,8.36422,0,0,1-11.7678-1.1768l-40.3242-49.285a17.64756,17.64756,0,0,1,2.4837-24.8374l29.0464-23.7653A17.6542,17.6542,0,0,1,569.1161,152.43149Z"/>
          <path class="cls-16" d="M525.24063,179.08769h52.35715a2.19064,2.19064,0,0,1,2.19064,2.19064v14.0802a2.19064,2.19064,0,0,1-2.19064,2.19064H525.24061a2.19069,2.19069,0,0,1-2.19069-2.19069V181.2784a2.19072,2.19072,0,0,1,2.19072-2.19072Z" transform="translate(5.39385 391.74724) rotate(-39.28938)"/>
          <path class="cls-17" d="M533.1592,216.98889l-17.2217-21.0486a13.53529,13.53529,0,0,1,1.9099-19.0253l29.0439-23.7633a13.52651,13.52651,0,0,1,19.0188,1.9019l17.2216,21.0486"/>
          <path class="cls-18" d="M588.1566,190.20249l10.5288,12.8684a4.13219,4.13219,0,0,1-.5815,5.8147l-35.7653,29.2625a4.13374,4.13374,0,0,1-5.8205-.5767L545.9894,224.703a4.12042,4.12042,0,0,1-.7009-3.9817,4.03733,4.03733,0,0,1,1.2834-1.8436l35.7653-29.2625a4.05722,4.05722,0,0,1,2.0612-.893A4.13986,4.13986,0,0,1,588.1566,190.20249Z"/>
          <path class="cls-14" d="M588.1566,190.20249l3.4808,4.2542a2.6658,2.6658,0,0,1-.8781,1.3454L550.9628,228.363a2.66587,2.66587,0,0,1-1.4926.5942l-3.4808-4.2542a4.12042,4.12042,0,0,1-.7009-3.9817l39.1099-31.9991A4.13986,4.13986,0,0,1,588.1566,190.20249Z"/>
          <path class="cls-19" d="M537.99561,201.82789h56.73852a0,0,0,0,1,0,0v6.85472a2.6602,2.6602,0,0,1-2.6602,2.6602h-51.4181a2.66022,2.66022,0,0,1-2.66022-2.66022v-6.8547a0,0,0,0,1,0,0Z" transform="translate(-2.79468 405.34168) rotate(-39.2895)"/>
          <path class="cls-20" d="M539.5534,178.45119l11.4649,14.0126a3.10638,3.10638,0,0,1-.4423,4.3685l-14.0067,11.4601a3.0999,3.0999,0,0,1-4.3637-.4364l-11.465-14.0126a3.09387,3.09387,0,0,1-.5414-2.9367,3.02461,3.02461,0,0,1,.9778-1.427l14.0068-11.4601a3.02494,3.02494,0,0,1,1.5924-.6759A3.08322,3.08322,0,0,1,539.5534,178.45119Z"/>
          <path class="cls-14" d="M539.5534,178.45119l3.956,4.8351a2.908,2.908,0,0,1-1.0189,1.6762l-15.9491,13.0493a2.96264,2.96264,0,0,1-1.8399.6727l-3.9609-4.8411a3.09387,3.09387,0,0,1-.5414-2.9367l16.577-13.563A3.08322,3.08322,0,0,1,539.5534,178.45119Z"/>
          <path class="cls-21" d="M562.9079,159.34289l11.4649,14.0127a3.09988,3.09988,0,0,1-.4364,4.3636l-14.0068,11.4602a3.1,3.1,0,0,1-4.3637-.4364l-11.4649-14.0127a3.09393,3.09393,0,0,1-.5415-2.9366,3.02553,3.02553,0,0,1,.9779-1.427l14.0068-11.4601a3.02417,3.02417,0,0,1,1.5923-.6759A3.09356,3.09356,0,0,1,562.9079,159.34289Z"/>
          <path class="cls-14" d="M562.9079,159.34289l3.9608,4.8411a2.95663,2.95663,0,0,1-1.0179,1.6655l-15.9549,13.054a2.95631,2.95631,0,0,1-1.834.6679l-3.9609-4.8411a3.09393,3.09393,0,0,1-.5415-2.9366l16.577-13.563A3.09356,3.09356,0,0,1,562.9079,159.34289Z"/>
          <path class="cls-22" d="M516.81377,181.32572h26.5581a0,0,0,0,1,0,0v6.54023a2.97458,2.97458,0,0,1-2.97458,2.97458H519.78839a2.97462,2.97462,0,0,1-2.97462-2.97462v-6.54019a0,0,0,0,1,0,0Z" transform="translate(1.98855 377.73699) rotate(-39.28935)"/>
          <path class="cls-23" d="M540.17209,162.21431h26.5581a0,0,0,0,1,0,0v6.54024a2.97465,2.97465,0,0,1-2.97465,2.97465H543.14669a2.9746,2.9746,0,0,1-2.9746-2.9746v-6.54029A0,0,0,0,1,540.17209,162.21431Z" transform="translate(19.37054 388.20838) rotate(-39.28935)"/>
          <path class="cls-24" d="M567.8225,205.39279a1.88336,1.88336,0,1,1-2.6502-.265A1.8834,1.8834,0,0,1,567.8225,205.39279Z"/>
          <path class="cls-14" d="M595.6457,180.98929l13.5534,16.5653a1.744,1.744,0,0,1-.2454,2.4538l-.5457.4465-15.7667-19.2704.5457-.4465A1.75065,1.75065,0,0,1,595.6457,180.98929Z"/>
          <path class="cls-25" d="M592.6413,181.18449l15.7667,19.2704-1.8543,1.5171a1.74405,1.74405,0,0,1-2.4539-.2453l-13.5534-16.5653a1.75068,1.75068,0,0,1,.2406-2.4598Z"/>
          <path class="cls-14" d="M536.2678,227.30829l15.7667,19.2704-.5457.4465a1.74552,1.74552,0,0,1-2.4597-.2406l-13.5534-16.5652a1.75214,1.75214,0,0,1,.2464-2.4646Z"/>
          <path class="cls-26" d="M540.5808,226.04249l13.5534,16.5652a1.75065,1.75065,0,0,1-.2513,2.4587l-1.8484,1.5123-15.7667-19.2704,1.8484-1.5123A1.75707,1.75707,0,0,1,540.5808,226.04249Z"/>
          <path class="cls-24" d="M555.5755,166.59409a1.88332,1.88332,0,1,1-2.6502-.265A1.88337,1.88337,0,0,1,555.5755,166.59409Z"/>
          <path class="cls-24" d="M532.2172,185.70549a1.88332,1.88332,0,1,1-2.6502-.265A1.88338,1.88338,0,0,1,532.2172,185.70549Z"/>
        </g>
        <g>
          <g>
            <path class="cls-27" d="M702.9865,51.77169a2.35224,2.35224,0,0,0-2.1644.4155l-6.2992,5.0651-58.9651,43.7125-73.3374-3.0285-8.0523-.652a2.35314,2.35314,0,0,0-2.4389,3.0366l30.8145,100.2087a2.3525,2.3525,0,0,0,2.1333,1.6585l80.2465,3.9478a8.34127,8.34127,0,0,0,5.4416-1.6741l64.1618-48.3531a2.352,2.352,0,0,0,.8329-2.5706L704.5452,53.32939A2.35256,2.35256,0,0,0,702.9865,51.77169Z"/>
            <polygon class="cls-28" points="693.681 51.701 724.99 153.515 733.195 154.502 702.38 54.294 693.681 51.701"/>
            <path class="cls-29" d="M733.1911,154.50049l-60.8505,45.8618-3.3122,2.4948a6.00267,6.00267,0,0,1-3.9028,1.2001l-4.1416-.2027-76.1056-3.7473,6.227-5.4236,72.0958,2.9764a5.82388,5.82388,0,0,0,3.8246-1.1761l57.9604-42.9691Z"/>
            <path class="cls-30" d="M672.3406,200.36229l-3.3122,2.4948a6.00267,6.00267,0,0,1-3.9028,1.2001l-4.1416-.2027a6.27853,6.27853,0,0,1,11.3566-3.4922Z"/>
            <polygon class="cls-31" points="559.797 92.871 554.062 99.902 584.877 200.111 591.105 194.685 559.797 92.871"/>
            <path class="cls-32" d="M665.2146,197.40879a5.96267,5.96267,0,0,0,1.8092-.9208l57.9658-42.9726L693.6813,51.70089l-59.67,44.2349,31.2018,101.4681Z"/>
            <path class="cls-33" d="M707.2642,136.21839l-43.5853,32.3079a.70594.70594,0,1,0,.8407,1.1343l43.5853-32.3079a.70594.70594,0,1,0-.8407-1.1343Zm-2.1674-7.0483-43.5852,32.3081a.70587.70587,0,1,0,.8406,1.1342l43.5854-32.3079a.706.706,0,0,0-.8408-1.1344Zm-2.1673-7.0481-43.5853,32.3079a.706.706,0,0,0,.8407,1.1344l43.5853-32.308a.70594.70594,0,1,0-.8407-1.1343Zm6.5007,21.1401-43.584,32.3124a.7059.7059,0,1,0,.8407,1.1342l43.584-32.3123a.70594.70594,0,1,0-.8407-1.1343Zm-66.5813-44.0745,43.584-32.3123a.70594.70594,0,0,0-.8407-1.1343l-43.584,32.3123a.70594.70594,0,1,0,.8407,1.1343Zm68.7487,51.1228-43.5841,32.3122a.706.706,0,1,0,.8408,1.1344l43.5839-32.3125a.70583.70583,0,1,0-.8406-1.1341Zm-21.6708-70.473-43.584,32.3123a.706.706,0,1,0,.8408,1.1343l43.5839-32.3124a.7059.7059,0,1,0-.8407-1.1342Zm2.1673,7.048-43.5852,32.3081a.70587.70587,0,1,0,.8406,1.1342l43.5854-32.3079a.706.706,0,1,0-.8408-1.1344Zm-4.3346-14.0963-43.584,32.3124a.706.706,0,0,0,.8407,1.1344l43.584-32.3124a.706.706,0,0,0-.8407-1.1344Zm6.502,21.1446-43.5853,32.3079a.706.706,0,0,0,.8407,1.1344l43.5853-32.308a.70594.70594,0,0,0-.8407-1.1343Zm2.1673,7.0481-43.5853,32.3081a.70594.70594,0,0,0,.8407,1.1343l43.5853-32.3081a.70594.70594,0,1,0-.8407-1.1343Zm4.3334,14.092-43.584,32.3124a.706.706,0,0,0,.8407,1.1344l43.584-32.3125a.70594.70594,0,0,0-.8407-1.1343Zm-2.1673-7.0481-43.5841,32.3122a.706.706,0,1,0,.8408,1.1344l43.584-32.3123a.70594.70594,0,0,0-.8407-1.1343Z"/>
            <path class="cls-32" d="M665.2146,197.40879a5.96364,5.96364,0,0,1-2.0139.2548l-72.0956-2.9782L559.7968,92.87089l74.2145,3.0649,31.2018,101.4681Z"/>
            <path class="cls-33" d="M595.3146,171.09379a.706.706,0,0,0,.6763.7343l54.2079,2.2362a.70595.70595,0,0,0,.0581-1.4107l-54.208-2.2361A.70594.70594,0,0,0,595.3146,171.09379Zm-2.1674-7.0483a.70609.70609,0,0,0,.6764.7344l54.2078,2.2362a.7059.7059,0,0,0,.0582-1.4106l-54.2081-2.2363A.70613.70613,0,0,0,593.1472,164.04549Zm-2.1673-7.0481a.706.706,0,0,0,.6763.7344l54.2079,2.2362a.706.706,0,0,0,.0581-1.4108l-54.208-2.2361A.70613.70613,0,0,0,590.9799,156.99739Zm6.5007,21.1401a.706.706,0,0,0,.676.7345l54.2093,2.2405a.706.706,0,0,0,.0583-1.4107l-54.2094-2.2406A.70591.70591,0,0,0,597.4806,178.13749Zm31.7815-75.2224a.70577.70577,0,0,0-.6759-.7345l-54.2094-2.2405a.706.706,0,0,0-.0582,1.4108l54.2092,2.2405A.70594.70594,0,0,0,629.2621,102.91509Zm-29.6141,82.2707a.70564.70564,0,0,0,.6759.7342l54.2093,2.2408a.70605.70605,0,0,0,.0584-1.4109l-54.2094-2.2404A.70585.70585,0,0,0,599.648,185.18579Zm-21.6708-70.473a.70609.70609,0,0,0,.676.7344l54.2093,2.2406a.706.706,0,0,0,.0584-1.4108l-54.2094-2.2405A.706.706,0,0,0,577.9772,114.71279Zm2.1673,7.048a.706.706,0,0,0,.6764.7344l54.2078,2.2362a.7059.7059,0,0,0,.0582-1.4106l-54.2081-2.2363A.70619.70619,0,0,0,580.1445,121.76079Zm-4.3346-14.0963a.706.706,0,0,0,.676.7345l54.2093,2.2406a.706.706,0,0,0,.0583-1.4108l-54.2094-2.2406A.70591.70591,0,0,0,575.8099,107.66449Zm6.502,21.1446a.706.706,0,0,0,.6763.7344l54.2079,2.2362a.706.706,0,0,0,.0581-1.4108l-54.208-2.2361A.70613.70613,0,0,0,582.3119,128.80909Zm2.1673,7.0481a.706.706,0,0,0,.6763.7344l54.208,2.2363a.70595.70595,0,0,0,.0581-1.4107l-54.2081-2.2363A.706.706,0,0,0,584.4792,135.85719Zm4.3334,14.092a.706.706,0,0,0,.676.7344l54.2093,2.2407a.706.706,0,0,0,.0583-1.4108l-54.2094-2.2406A.70591.70591,0,0,0,588.8126,149.94919Zm-2.1673-7.0481a.70611.70611,0,0,0,.676.7345l54.2092,2.2405a.706.706,0,0,0,.0584-1.4108l-54.2094-2.2405A.706.706,0,0,0,586.6453,142.90109Z"/>
          </g>
          <polygon class="cls-34" points="634.898 94.233 668.558 200.583 670.296 194.18 674.695 196.034 640.765 89.883 634.898 94.233"/>
        </g>
        <g>
          <g id="_Group_" data-name="&lt;Group&gt;">
            <g>
              <g>
                <g>
                  <path class="cls-35" d="M518.1368,27.58339l-6.6873,1.2341-9.007,1.6622-6.6874,1.2341a10.08972,10.08972,0,0,1,8.0872-11.7475l2.5471-.47a10.08493,10.08493,0,0,1,11.7474,8.0871Z"/>
                  <path class="cls-36" d="M511.4495,28.81749l1.344,7.2836a31.88268,31.88268,0,0,0-9.0068,1.662l-1.3442-7.2834Z"/>
                </g>
                <g>
                  <path class="cls-37" d="M530.0983,30.27109l5.5167,3.9762,7.4301,5.3555,5.5167,3.9763a10.08957,10.08957,0,0,0-2.2845-14.0779l-2.1012-1.5145a10.085,10.085,0,0,0-14.0778,2.2844Z"/>
                  <path class="cls-38" d="M535.615,34.24729l-4.3306,6.0085a31.87795,31.87795,0,0,1,7.43,5.3554l4.3307-6.0084Z"/>
                </g>
              </g>
              <path class="cls-39" d="M535.9126,97.72729a6.33554,6.33554,0,0,1-12.5054,2.0423l-1.0044-6.1527a31.44672,31.44672,0,0,0,12.0304-4.9657Z"/>
              <path class="cls-40" d="M528.0392,32.82829a31.73814,31.73814,0,0,1-5.6364,60.7886A31.73588,31.73588,0,0,1,485.66,55.36839a31.71375,31.71375,0,0,1,37.9933-23.8797A31.25807,31.25807,0,0,1,528.0392,32.82829Z"/>
              <path class="cls-41" d="M497.8276,88.011l-3.5732,5.1087a6.33424,6.33424,0,0,1-11.3635-5.0453,6.26266,6.26266,0,0,1,.9807-2.218l5.2689-7.5368A31.44417,31.44417,0,0,0,497.8276,88.011Z"/>
            </g>
          </g>
          <g>
            <circle class="cls-42" cx="516.5935" cy="62.42144" r="26.02781" transform="translate(340.35539 552.01863) rotate(-77.09268)"/>
            <g class="cls-43">
              <path class="cls-44" d="M516.57007,38.388a24.17069,24.17069,0,0,1,5.36706.60745,24.03105,24.03105,0,0,1-5.32019,47.45952,24.17176,24.17176,0,0,1-5.36718-.60746A24.03106,24.03106,0,0,1,516.57007,38.388m0-2a26.0507,26.0507,0,1,0,5.81189.65753,26.03709,26.03709,0,0,0-5.81189-.65753Z"/>
            </g>
            <circle class="cls-45" cx="516.5935" cy="62.42144" r="26.02781" transform="translate(340.35539 552.01863) rotate(-77.09268)"/>
          </g>
          <rect class="cls-46" x="517.93571" y="42.15079" width="6.30837" height="1.10229" transform="translate(363.59039 541.25188) rotate(-77.15265)"/>
          <rect class="cls-46" x="508.93907" y="81.58902" width="6.3094" height="1.10205" transform="translate(318.11467 563.1381) rotate(-77.14918)"/>
          <rect class="cls-46" x="496.32162" y="54.76877" width="1.10227" height="6.30889" transform="translate(329.8957 529.46992) rotate(-77.14997)"/>
          <rect class="cls-46" x="535.75985" y="63.7649" width="1.1021" height="6.30888" transform="translate(351.79983 574.9186) rotate(-77.15085)"/>
          <rect class="cls-46" x="505.27812" y="42.14265" width="1.10206" height="6.30898" transform="translate(53.45003 276.09595) rotate(-32.14737)"/>
          <rect class="cls-46" x="526.80339" y="76.39091" width="1.10212" height="6.30906" transform="translate(38.52496 292.79629) rotate(-32.14689)"/>
          <rect class="cls-46" x="496.31344" y="72.63325" width="6.30886" height="1.10209" transform="translate(37.65039 277.01929) rotate(-32.15141)"/>
          <g class="cls-43">
            <rect class="cls-33" x="530.56128" y="51.10726" width="6.30893" height="1.10202" transform="translate(54.33928 291.90663) rotate(-32.14701)"/>
          </g>
          <polygon class="cls-47" points="521.219 71.855 515.416 62.621 518.933 47.203 521.082 47.693 517.768 62.221 523.086 70.682 521.219 71.855"/>
          <path class="cls-48" d="M519.125,62.999a2.59827,2.59827,0,1,1-1.9554-3.111A2.59836,2.59836,0,0,1,519.125,62.999Z"/>
        </g>
        <g>
          <path class="cls-49" d="M596.8966,54.24849a5.57829,5.57829,0,0,0,6.5255,4.468l5.3795-1.0068,13.7449-2.5552,95.0523-17.789,12.1746-7.0083-.7809-4.1725-13.885-2.1307L620.0553,41.843l-13.7584,2.5749-5.3797,1.0068a5.62206,5.62206,0,0,0-4.468,6.5256Z"/>
          <path class="cls-50" d="M603.4221,58.71659a5.57831,5.57831,0,0,1-6.5255-4.4681l-.4474-2.2982a5.62227,5.62227,0,0,1,4.4681-6.5259l5.3795-1.0068.3855,1.9674.595,3.1788.5949,3.1788.5751,3.1659.3545,1.8013Z"/>
          <polygon class="cls-51" points="622.547 55.154 608.802 57.71 608.448 55.908 622.206 53.333 622.547 55.154"/>
          <polygon class="cls-52" points="607.872 52.743 607.277 49.564 621.002 46.995 621.301 48.499 621.611 50.154 607.872 52.743"/>
          <polygon class="cls-53" points="606.682 46.385 606.297 44.418 620.055 41.843 620.407 43.816 606.682 46.385"/>
          <rect class="cls-54" x="606.86031" y="45.07279" width="13.96333" height="3.234" transform="translate(1.88652 113.71536) rotate(-10.60015)"/>
          <polygon class="cls-54" points="608.447 55.908 607.872 52.743 621.611 50.154 622.206 53.333 608.447 55.908"/>
          <polygon class="cls-55" points="622.547 55.154 622.206 53.333 621.611 50.155 621.301 48.499 716.353 30.709 717.599 37.365 622.547 55.154"/>
          <polygon class="cls-56" points="621.301 48.499 621.002 46.995 620.407 43.816 620.055 41.843 715.108 24.054 716.353 30.71 621.301 48.499"/>
          <polygon class="cls-57" points="735.154 27.191 729.773 30.357 728.992 26.185 735.154 27.191"/>
          <polygon class="cls-58" points="717.599 37.365 716.353 30.709 715.108 24.054 728.992 26.185 729.773 30.357 717.599 37.365"/>
        </g>
        <g>
          <path class="cls-59" d="M500.4308,311.431a3.74783,3.74783,0,0,1-.458.4877,2.97916,2.97916,0,0,1-.3442.2832,6.7231,6.7231,0,0,1-.8916.6177c-.1204.0779-.2435.1476-.3749.2202-.3176.173-.649.3324-1.0081.492-.1288.0533-.2658.1094-.4029.1655-.17.0674-.3509.1294-.5319.1913s-.3619.1239-.5375.1748c-.1427.0396-.2854.0793-.4198.1161-.3815.0938-.7412.171-1.0981.2288-.1484.0232-.2885.0436-.4313.0557a6.70953,6.70953,0,0,1-1.083.0582,2.94663,2.94663,0,0,1-.4456-.0129,3.74706,3.74706,0,0,1-.6608-.1047l-1.0934-10.1492,4.426-1.5149Z"/>
          <g class="cls-43">
            <path class="cls-59" d="M492.04,303.77949l2.3238,10.6288c-.1484.0232-.2885.0436-.4313.0557l-2.3038-10.5437Z"/>
            <path class="cls-59" d="M492.7229,303.54579l3.1588,10.5176c-.1427.0396-.2854.0793-.4198.1161l-3.1503-10.4929Z"/>
            <path class="cls-59" d="M491.3572,304.01319l1.4923,10.509a2.94663,2.94663,0,0,1-.4456-.0129l-1.4663-10.3524Z"/>
            <path class="cls-59" d="M497.354,313.53179c-.1288.0533-.2658.1094-.4029.1655l-3.9485-10.2472.4114-.1408Z"/>
            <path class="cls-59" d="M498.737,312.81959c-.1204.0779-.2435.1476-.3749.2202l-4.6767-9.8234.4114-.1408Z"/>
            <path class="cls-59" d="M499.9728,311.91869a2.97916,2.97916,0,0,1-.3442.2832l-5.2603-9.2193.4196-.1436Z"/>
          </g>
          <path class="cls-60" d="M374.6904,272.82589l15.3719,44.9105c2.5748,7.5229,32.5815,10.7008,64.5136-.2288s53.698-31.8281,51.1231-39.3509l-15.3718-44.9106Z"/>
          <polygon class="cls-16" points="388.952 267.944 376.319 277.585 382.694 296.209 447.116 295.712 498.331 256.629 491.956 238.005 476.065 238.128 388.952 267.944"/>
          <polygon class="cls-61" points="422.718 224.43 346.785 282.377 442.3 281.641 518.233 223.695 422.718 224.43"/>
          <polygon class="cls-62" points="519.355 226.974 518.233 223.695 442.3 281.641 346.785 282.377 347.907 285.656 443.804 286.037 519.355 226.974"/>
          <path class="cls-59" d="M495.0751,302.74069c.1531.4474-.7134,1.1492-1.9355,1.5675s-2.3369.3947-2.49-.0527.7134-1.1492,1.9355-1.5675S494.922,302.29329,495.0751,302.74069Z"/>
          <rect class="cls-59" x="489.39702" y="296.72866" width="4.6776" height="6.95641" transform="matrix(0.94612, -0.32382, 0.32382, 0.94612, -70.71731, 175.40801)"/>
          <path class="cls-63" d="M492.8222,296.15869c.1532.4474-.7134,1.1492-1.9355,1.5675s-2.3369.3946-2.49-.0527.7134-1.1492,1.9355-1.5675S492.6691,295.71129,492.8222,296.15869Z"/>
          <path class="cls-64" d="M490.8048,297.45179a1.14011,1.14011,0,0,0,.7097-1.4481l-13.6437-39.8616a1.42533,1.42533,0,0,0-1.2426-.9598l-44.0347-3.2832a1.14016,1.14016,0,1,0-.1696,2.274l43.4718,3.2415,13.461,39.3276A1.1401,1.1401,0,0,0,490.8048,297.45179Z"/>
          <path class="cls-65" d="M440.0434,250.45709c.7232,2.1128-2.0639,4.9803-6.2252,6.4046s-8.1208.8661-8.844-1.2468,2.0639-4.9803,6.2251-6.4046S439.3202,248.34419,440.0434,250.45709Z"/>
        </g>
        <g>
          <path class="cls-66" d="M444.8066,155.007a1.08535,1.08535,0,0,1-.986-.6299c-7.4529-16.0703,4.6566-25.5813,4.7796-25.6753a1.08634,1.08634,0,0,1,1.3207,1.7252c-.457.353-10.8291,8.5889-4.1296,23.0362a1.087,1.087,0,0,1-.9847,1.5438Z"/>
          <path class="cls-67" d="M441.0815,142.85129h0a12.01561,12.01561,0,0,1-15.9556-5.8455h0a12.01566,12.01566,0,0,1,15.9556,5.8455Z"/>
          <path class="cls-68" d="M456.5137,140.71179c-4.4899.7287-8.3007,3.6998-10.932,7.9749a5.24351,5.24351,0,0,1-5.2721,2.4449c-4.9631-.7532-9.6928.2362-13.1495,3.1928-7.3732,6.306-6.162,19.1166,2.7053,28.6133s22.0328,12.0832,29.4059,5.7771l.0124-.0106a5.53972,5.53972,0,0,1,2.7208-1.2617l.0161-.0026c9.5767-1.5543,16.1074-13.2748,14.5867-26.1784S466.0904,139.15749,456.5137,140.71179Z"/>
          <path class="cls-69" d="M434.6957,165.57969c.5488,3.4398-.987,6.5442-3.4303,6.9339s-4.8687-2.0827-5.4174-5.5224.9871-6.5442,3.4303-6.934S434.147,162.14,434.6957,165.57969Z"/>
        </g>
        <g>
          <path class="cls-3" d="M707.8866,264.84079a4.20638,4.20638,0,0,0-5.8286-1.1896l-49.7567,32.8894a4.20622,4.20622,0,0,0-1.1895,5.8285l8.0037,12.1085,56.7748-37.5284Z"/>
          <path class="cls-33" d="M659.1155,314.47759l1.2389,1.8742a4.20633,4.20633,0,0,0,5.8285,1.1896l49.7567-32.8894a4.20645,4.20645,0,0,0,1.1896-5.8286l-1.2389-1.8742Z"/>
          <rect class="cls-70" x="658.92035" y="276.8674" width="45.83359" height="20.54928" transform="translate(-45.30535 423.58336) rotate(-33.46484)"/>
          <rect class="cls-71" x="669.25436" y="281.50059" width="25.16562" height="11.28291" transform="translate(-45.30494 423.58556) rotate(-33.46502)"/>
          <rect class="cls-72" x="666.86935" y="295.02697" width="45.83355" height="8.28135" transform="translate(-50.61807 429.96445) rotate(-33.46517)"/>
        </g>
        <g>
          <rect class="cls-73" x="599.5698" y="305.80951" width="6" height="34.09061" transform="translate(-25.98593 591.63593) rotate(-51.33463)"/>
          <circle class="cls-74" cx="568.42475" cy="295.53482" r="24.80111" transform="translate(46.95604 667.71475) rotate(-62.98679)"/>
          <circle class="cls-75" cx="554.69107" cy="299.22049" r="7.63691" transform="translate(-12.78303 25.01577) rotate(-2.5541)"/>
          <rect class="cls-76" x="622.06787" y="325.33197" width="9.14636" height="33.56604" transform="translate(-31.9852 617.67467) rotate(-51.33608)"/>
          <path class="cls-77" d="M636.8885,356.17109l9.6581,7.7276a4.57318,4.57318,0,0,0,5.7142-7.1417l-9.6581-7.7276Z"/>
          <path class="cls-78" d="M545.2467,276.98959a29.68414,29.68414,0,1,0,41.7233-4.6328A29.68427,29.68427,0,0,0,545.2467,276.98959Zm43.5319,34.8308a26.06722,26.06722,0,1,1-4.0683-36.6394A26.06727,26.06727,0,0,1,588.7786,311.82039Z"/>
        </g>
        <g class="cls-79">
          <path class="cls-80" d="M547.9329,75.21729h0a10.24689,10.24689,0,0,1-10.2468,10.2469,10.24689,10.24689,0,0,1,10.2468,10.2469h0a10.24691,10.24691,0,0,1,10.2469-10.2469A10.24691,10.24691,0,0,1,547.9329,75.21729Z"/>
          <path class="cls-80" d="M448.4034,91.36819h0a10.24691,10.24691,0,0,1-10.2469,10.2469,10.24691,10.24691,0,0,1,10.2469,10.2469h0a10.24691,10.24691,0,0,1,10.2469-10.2469A10.24691,10.24691,0,0,1,448.4034,91.36819Z"/>
          <path class="cls-80" d="M596.3583,244.28279h0a4.96518,4.96518,0,0,1-4.9651,4.9652,4.96516,4.96516,0,0,1,4.9651,4.9651h0a4.96516,4.96516,0,0,1,4.9651-4.9651A4.96518,4.96518,0,0,1,596.3583,244.28279Z"/>
          <path class="cls-80" d="M610.4782,80.86849h-.0001a4.96512,4.96512,0,0,1-4.9651,4.9652,4.9651,4.9651,0,0,1,4.9651,4.9651h.0001a4.9651,4.9651,0,0,1,4.9651-4.9651A4.96512,4.96512,0,0,1,610.4782,80.86849Z"/>
          <path class="cls-80" d="M348.0882,168.09129h0a4.9651,4.9651,0,0,1-4.9651,4.9651,4.96518,4.96518,0,0,1,4.9651,4.9652h0a4.96518,4.96518,0,0,1,4.9651-4.9652A4.9651,4.9651,0,0,1,348.0882,168.09129Z"/>
          <path class="cls-80" d="M385.9067,125.139h-.0001a4.96512,4.96512,0,0,1-4.9651,4.9652,4.9651,4.9651,0,0,1,4.9651,4.9651h.0001a4.9651,4.9651,0,0,1,4.9651-4.9651A4.96512,4.96512,0,0,1,385.9067,125.139Z"/>
          <path class="cls-80" d="M332.8056,32.60629h0a4.96521,4.96521,0,0,1-4.96523,4.9652,4.96513,4.96513,0,0,1,4.96523,4.9651h0a4.965,4.965,0,0,1,4.9651-4.9651A4.96512,4.96512,0,0,1,332.8056,32.60629Z"/>
          <path class="cls-80" d="M539.4265,313.364h0a8.68685,8.68685,0,0,1-8.6868,8.6868,8.68691,8.68691,0,0,1,8.6868,8.6868h0a8.68685,8.68685,0,0,1,8.6868-8.6868A8.68678,8.68678,0,0,1,539.4265,313.364Z"/>
          <path class="cls-80" d="M488.6068,177.54119h0a10.24691,10.24691,0,0,1-10.2469,10.2469,10.24691,10.24691,0,0,1,10.2469,10.2469h0a10.24689,10.24689,0,0,1,10.2468-10.2469A10.24689,10.24689,0,0,1,488.6068,177.54119Z"/>
          <path class="cls-80" d="M706.5701,221.68849H706.57a10.24682,10.24682,0,0,1-10.2468,10.2469,10.24682,10.24682,0,0,1,10.2468,10.2469h.0001a10.24689,10.24689,0,0,1,10.2468-10.2469A10.24689,10.24689,0,0,1,706.5701,221.68849Z"/>
          <g>
            <g>
              <path class="cls-80" d="M568.9887,37.87069a.75021.75021,0,0,1-.75-.75v-7.1436a.75.75,0,1,1,1.5,0v7.1436A.75027.75027,0,0,1,568.9887,37.87069Z"/>
              <path class="cls-80" d="M568.9887,50.63139a.75015.75015,0,0,1-.75-.75v-7.1436a.75.75,0,0,1,1.5,0v7.1436A.75021.75021,0,0,1,568.9887,50.63139Z"/>
            </g>
            <g>
              <path class="cls-80" d="M566.1805,40.67929h-7.144a.75.75,0,0,1,0-1.5h7.144a.75.75,0,0,1,0,1.5Z"/>
              <path class="cls-80" d="M578.9413,40.67929h-7.1445a.75.75,0,0,1,0-1.5h7.1445a.75.75,0,0,1,0,1.5Z"/>
            </g>
            <g>
              <path class="cls-80" d="M561.9515,47.71639a.75005.75005,0,0,1-.5302-1.2803l5.0517-5.0518a.75.75,0,0,1,1.0606,1.0606l-5.0518,5.0517A.74766.74766,0,0,1,561.9515,47.71639Z"/>
              <path class="cls-80" d="M570.9745,38.69389a.75.75,0,0,1-.5303-1.2803l5.0518-5.0517a.74989.74989,0,1,1,1.0605,1.0605l-5.0517,5.0518A.74755.74755,0,0,1,570.9745,38.69389Z"/>
            </g>
            <g>
              <path class="cls-80" d="M576.0262,47.71639a.7476.7476,0,0,1-.5302-.2198l-5.0518-5.0517a.75.75,0,0,1,1.0606-1.0606l5.0517,5.0518a.75005.75005,0,0,1-.5303,1.2803Z"/>
              <path class="cls-80" d="M567.0033,38.69389a.74755.74755,0,0,1-.5303-.2197l-5.0517-5.0518a.74989.74989,0,1,1,1.0605-1.0605l5.0518,5.0517a.75.75,0,0,1-.5303,1.2803Z"/>
            </g>
          </g>
          <g>
            <g>
              <path class="cls-80" d="M731.2755,303.00689a.75015.75015,0,0,1-.75-.75v-7.1435a.75.75,0,0,1,1.5,0v7.1435A.75021.75021,0,0,1,731.2755,303.00689Z"/>
              <path class="cls-80" d="M731.2755,315.76769a.75021.75021,0,0,1-.75-.75v-7.1436a.75.75,0,0,1,1.5,0v7.1436A.75027.75027,0,0,1,731.2755,315.76769Z"/>
            </g>
            <g>
              <path class="cls-80" d="M728.4673,305.81549h-7.144a.75.75,0,0,1,0-1.5h7.144a.75.75,0,0,1,0,1.5Z"/>
              <path class="cls-80" d="M741.2281,305.81549h-7.1445a.75.75,0,0,1,0-1.5h7.1445a.75.75,0,0,1,0,1.5Z"/>
            </g>
            <g>
              <path class="cls-80" d="M724.2383,312.85259a.75.75,0,0,1-.5302-1.2802l5.0517-5.0518a.75.75,0,0,1,1.0606,1.0606l-5.0518,5.0517A.74755.74755,0,0,1,724.2383,312.85259Z"/>
              <path class="cls-80" d="M733.2613,303.83019a.75.75,0,0,1-.5303-1.2803l5.0518-5.0517a.74989.74989,0,0,1,1.0605,1.0605l-5.0517,5.0518A.748.748,0,0,1,733.2613,303.83019Z"/>
            </g>
            <g>
              <path class="cls-80" d="M738.3131,312.85259a.74755.74755,0,0,1-.5303-.2197l-5.0518-5.0517a.75.75,0,1,1,1.0606-1.0606l5.0517,5.0518a.75.75,0,0,1-.5302,1.2802Z"/>
              <path class="cls-80" d="M729.2901,303.83019a.748.748,0,0,1-.5303-.2197l-5.0517-5.0518a.74989.74989,0,0,1,1.0605-1.0605l5.0518,5.0517a.75.75,0,0,1-.5303,1.2803Z"/>
            </g>
          </g>
          <g>
            <g>
              <path class="cls-80" d="M417.8212,200.24049a.60316.60316,0,0,1-.603-.603v-5.7434a.603.603,0,0,1,1.206,0v5.7434A.60316.60316,0,0,1,417.8212,200.24049Z"/>
              <path class="cls-80" d="M417.8212,210.50009a.60316.60316,0,0,1-.603-.603v-5.7434a.603.603,0,0,1,1.206,0v5.7434A.60316.60316,0,0,1,417.8212,210.50009Z"/>
            </g>
            <g>
              <path class="cls-80" d="M415.5635,202.49859h-5.7438a.603.603,0,0,1,0-1.206h5.7438a.603.603,0,1,1,0,1.206Z"/>
              <path class="cls-80" d="M425.8231,202.49859h-5.7442a.603.603,0,0,1,0-1.206h5.7442a.603.603,0,0,1,0,1.206Z"/>
            </g>
            <g>
              <path class="cls-80" d="M412.1634,208.15639a.603.603,0,0,1-.4263-1.0293l4.0616-4.0616a.60291.60291,0,1,1,.8526.8527l-4.0616,4.0616A.60063.60063,0,0,1,412.1634,208.15639Z"/>
              <path class="cls-80" d="M419.4178,200.90239a.603.603,0,0,1-.4263-1.0293l4.0616-4.0616a.60295.60295,0,0,1,.8527.8527l-4.0616,4.0616A.60144.60144,0,0,1,419.4178,200.90239Z"/>
            </g>
            <g>
              <path class="cls-80" d="M423.4794,208.15639a.6008.6008,0,0,1-.4263-.1766l-4.0616-4.0616a.60295.60295,0,0,1,.8527-.8527l4.0616,4.0616a.603.603,0,0,1-.4264,1.0293Z"/>
              <path class="cls-80" d="M416.225,200.90239a.601.601,0,0,1-.4263-.1766l-4.0616-4.0616a.60291.60291,0,0,1,.8526-.8527l4.0616,4.0616a.603.603,0,0,1-.4263,1.0293Z"/>
            </g>
          </g>
          <g>
            <g>
              <path class="cls-80" d="M537.6859,256.19739a.60316.60316,0,0,1-.603-.603V249.851a.603.603,0,1,1,1.206,0v5.7434A.60316.60316,0,0,1,537.6859,256.19739Z"/>
              <path class="cls-80" d="M537.6859,266.457a.60316.60316,0,0,1-.603-.603v-5.7434a.603.603,0,1,1,1.206,0v5.7434A.60316.60316,0,0,1,537.6859,266.457Z"/>
            </g>
            <g>
              <path class="cls-80" d="M535.4282,258.45549h-5.7438a.603.603,0,0,1,0-1.206h5.7438a.603.603,0,0,1,0,1.206Z"/>
              <path class="cls-80" d="M545.6878,258.45549h-5.7442a.603.603,0,0,1,0-1.206h5.7442a.603.603,0,0,1,0,1.206Z"/>
            </g>
            <g>
              <path class="cls-80" d="M532.0281,264.11329a.603.603,0,0,1-.4264-1.0293l4.0616-4.0616a.60291.60291,0,1,1,.8527.8526l-4.0616,4.0616A.60107.60107,0,0,1,532.0281,264.11329Z"/>
              <path class="cls-80" d="M539.2825,256.85929a.60305.60305,0,0,1-.4264-1.0294l4.0616-4.0616a.60295.60295,0,0,1,.8527.8527l-4.0616,4.0616A.6009.6009,0,0,1,539.2825,256.85929Z"/>
            </g>
            <g>
              <path class="cls-80" d="M543.3441,264.11329a.60113.60113,0,0,1-.4264-.1767l-4.0616-4.0616a.60291.60291,0,1,1,.8527-.8526l4.0616,4.0616a.603.603,0,0,1-.4263,1.0293Z"/>
              <path class="cls-80" d="M536.0896,256.85929a.60107.60107,0,0,1-.4263-.1767l-4.0616-4.0616a.60295.60295,0,1,1,.8527-.8527l4.0616,4.0616a.60305.60305,0,0,1-.4264,1.0294Z"/>
            </g>
          </g>
        </g>
        <g>
          <path class="cls-81" d="M326.57777,5.25609s-23.017,47.7453-30.87777,67.473l5.15808,2.0897-.0045.0113,5.1627,2.0784c8.0868-19.6362,24.79192-69.9384,24.79192-69.9384a3.30055,3.30055,0,0,0-1.82653-1.5696A3.30048,3.30048,0,0,0,326.57777,5.25609Z"/>
          <path class="cls-82" d="M300.85808,74.81879,295.7,72.72909c-.79732,1.9681-1.43482,3.672-1.88252,5.0049-4.90148,14.6981-7.8153,25.3688-7.8153,25.3688l2.8953,1.2389,2.9184,1.1822.0228-.0565s5.3347-9.6899,12.0457-23.6549c.6063-1.2687,1.3344-2.9358,2.1319-4.904l-5.1627-2.0784Z"/>
          <path class="cls-83" d="M285.97918,103.15939s-7.5724,3.187-3.3233,16.5884c12.3787-6.665,9.16-14.2239,9.16-14.2239l-2.9184-1.1822Z"/>
        </g>
        <g>
          <path class="cls-84" d="M362.2308,93.68659c-15.1564-5.5446-31.0988,3.5034-39.4478,12.3728-11.01362,11.7003-16.57672,30.8016-7.03282,45.0635,4.53119,6.7712,12.63649,9.6828,19.62112,4.5705a11.52342,11.52342,0,0,0,2.374-2.3498c1.3583-1.7773,2.2351-3.7969,3.5483-5.7849a26.896,26.896,0,0,1,7.4519-7.4278,28.13274,28.13274,0,0,1,11.5559-4.4165c3.7598-.5445,7.4263.0781,11.034-1.4648a15.19654,15.19654,0,0,0,7.8981-8.9413C384.2995,111.36329,375.3215,98.47559,362.2308,93.68659Zm-23.3327,41.7123a4.7017,4.7017,0,1,1,4.7016-4.7017A4.70165,4.70165,0,0,1,338.8981,135.39889Z"/>
          <path class="cls-85" d="M360.5358,91.89669c-15.1564-5.5446-31.0988,3.5034-39.4478,12.3728-11.01362,11.7003-16.57672,30.8016-7.03282,45.0635,4.5312,6.7712,12.63649,9.6828,19.62112,4.5705a11.52342,11.52342,0,0,0,2.374-2.3498c1.3583-1.7773,2.2351-3.7969,3.5483-5.7849a26.896,26.896,0,0,1,7.4519-7.4278,28.13274,28.13274,0,0,1,11.5559-4.4165c3.7598-.5445,7.4263.0781,11.034-1.4648a15.19654,15.19654,0,0,0,7.8981-8.9413C382.6045,109.57339,373.6265,96.68569,360.5358,91.89669ZM337.2031,133.609a4.7017,4.7017,0,1,1,4.7016-4.7017A4.70159,4.70159,0,0,1,337.2031,133.609Z"/>
          <path class="cls-86" d="M331.426,143.43329a6.66461,6.66461,0,1,1-8.48543-4.1028A6.66458,6.66458,0,0,1,331.426,143.43329Z"/>
          <path class="cls-87" d="M326.11127,126.716a6.66455,6.66455,0,1,1-8.48527-4.1027A6.66445,6.66445,0,0,1,326.11127,126.716Z"/>
          <path class="cls-88" d="M335.2059,109.43489a6.66461,6.66461,0,1,1-8.48543-4.1027A6.66468,6.66468,0,0,1,335.2059,109.43489Z"/>
          <path class="cls-89" d="M351.1497,99.56359a6.66461,6.66461,0,1,1-8.4853-4.1027A6.66456,6.66456,0,0,1,351.1497,99.56359Z"/>
          <path class="cls-90" d="M367.6748,102.42909a6.6646,6.6646,0,1,1-8.4854-4.1027A6.66459,6.66459,0,0,1,367.6748,102.42909Z"/>
          <path class="cls-91" d="M374.6703,117.19359a6.6646,6.6646,0,1,1-8.4853-4.1028A6.66454,6.66454,0,0,1,374.6703,117.19359Z"/>
        </g>
        <g>
          <path class="cls-92" d="M406.8807,21.59109a6.48761,6.48761,0,0,0-8.7977,2.6034l-39.8523,73.35,64.4982,35.0429,36.7551-67.6495,3.0972-5.7005,3.0972-5.7006Z"/>
          <path class="cls-93" d="M406.1394,21.25249a6.48473,6.48473,0,0,0-8.0564,2.942l-39.8523,73.35v.0001a6.48485,6.48485,0,0,0,1.9159,8.3601Z"/>
          <path class="cls-94" d="M419.6317,138.288l-58.7976-31.9457a6.48761,6.48761,0,0,1-2.6034-8.7977h0a6.48766,6.48766,0,0,1,8.7978-2.6034l58.7976,31.9457Z"/>
          <path class="cls-95" d="M361.5513,105.022a4.98523,4.98523,0,1,1,4.7599-8.7609l58.7978,31.9457-4.76,8.7609Z"/>
          <rect class="cls-46" x="406.1617" y="45.81724" width="39.7846" height="21.91951" transform="translate(78.79258 -196.51166) rotate(28.51595)"/>
          <rect class="cls-46" x="409.62916" y="70.5232" width="1.26277" height="30.45803" transform="translate(139.05139 405.30308) rotate(-61.484)"/>
          <rect class="cls-46" x="407.50732" y="74.41996" width="1.26277" height="30.45805" transform="translate(134.51849 405.47508) rotate(-61.484)"/>
          <rect class="cls-46" x="405.38548" y="78.31674" width="1.26279" height="30.4581" transform="translate(129.98606 405.64755) rotate(-61.48409)"/>
          <rect class="cls-46" x="403.26363" y="82.21354" width="1.26279" height="30.4581" transform="translate(125.45265 405.81913) rotate(-61.484)"/>
        </g>
        <path class="cls-96" d="M662.4506,235.93889l7.7266.1291a4.79414,4.79414,0,0,1,4.7134,4.8736h0a4.7942,4.7942,0,0,1-4.8736,4.7134l-19.7319-.3297a6.03892,6.03892,0,0,1-5.9373-6.1391h0a6.03892,6.03892,0,0,1,6.1391-5.9373l28.4333.4751a7.284,7.284,0,0,1,7.1612,7.4046v.0001a7.2839,7.2839,0,0,1-7.4047,7.1611l-26.9447-.4503"/>
        <path class="cls-97" d="M629.4409,227.82079l4.9591-3.9456a3.93151,3.93151,0,0,1,5.5244.6287h.0001a3.93172,3.93172,0,0,1-.6288,5.5245l-12.6646,10.0763a4.95246,4.95246,0,0,1-6.9589-.7921h0a4.95248,4.95248,0,0,1,.792-6.959l18.2494-14.5196a5.9733,5.9733,0,0,1,8.3934.9553h0a5.97329,5.97329,0,0,1-.9553,8.3934l-17.294,13.7596"/>
        <path class="cls-98" d="M619.4585,265.17859l5.899,2.3157a3.93151,3.93151,0,0,1,2.2231,5.0964h0a3.93155,3.93155,0,0,1-5.0964,2.223L607.4194,268.9a4.95267,4.95267,0,0,1-2.8003-6.4198h0a4.95251,4.95251,0,0,1,6.4197-2.8003l21.7081,8.5217a5.97332,5.97332,0,0,1,3.3776,7.743h0a5.97343,5.97343,0,0,1-7.7431,3.3776l-20.5716-8.0756"/>
        <polygon class="cls-99" points="519.877 110.654 480.265 110.654 480.265 150.266 509.482 150.266 519.877 139.871 519.877 110.654"/>
        <polygon class="cls-100" points="519.877 139.871 509.482 150.266 509.482 139.871 519.877 139.871"/>
        <rect class="cls-46" x="489.0912" y="119.37499" width="21.1518" height="2.4347"/>
        <rect class="cls-46" x="489.0912" y="124.54879" width="21.1518" height="2.4347"/>
        <rect class="cls-46" x="489.0912" y="132.24889" width="14.1758" height="2.4347"/>
        <rect class="cls-101" x="494.85158" y="102.09244" width="6.38068" height="13.17279" transform="translate(-7.64073 44.32125) rotate(-5.05671)"/>
      </g>
    </g>
  </g>
</svg>
