<svg id="Layer_1" data-name="Layer 1" xmlns="http://www.w3.org/2000/svg" xmlns:xlink="http://www.w3.org/1999/xlink" viewBox="0 0 626 628"><defs><style>.cls-1{fill:url(#linear-gradient);}.cls-2{fill:url(#linear-gradient-2);}.cls-3{fill:url(#linear-gradient-3);}</style><linearGradient id="linear-gradient" x1="105.63" y1="216.45" x2="606.25" y2="563.1" gradientUnits="userSpaceOnUse"><stop offset="0.14" stop-color="#f0f"/><stop offset="1" stop-color="#662d91"/></linearGradient><linearGradient id="linear-gradient-2" x1="246.83" y1="301.64" x2="457.28" y2="-16.33" gradientUnits="userSpaceOnUse"><stop offset="0.25" stop-color="#662d91"/><stop offset="1" stop-color="#f0f"/></linearGradient><linearGradient id="linear-gradient-3" x1="412.11" y1="376.45" x2="536.43" y2="22.2" gradientUnits="userSpaceOnUse"><stop offset="0" stop-color="#662d91"/><stop offset="0.05" stop-color="#76289c"/><stop offset="0.21" stop-color="#a61abf"/><stop offset="0.36" stop-color="#cd0fdb"/><stop offset="0.5" stop-color="#e807ef"/><stop offset="0.62" stop-color="#f902fb"/><stop offset="0.72" stop-color="#f0f"/></linearGradient></defs><title>favicon 667x667</title><path class="cls-1" d="M636.85,484.2C581.06,581.77,472.59,648,347.92,648,166.27,648,19,507.41,19,334,19,172.1,147.38,38.79,312.27,21.83c-1.59.7-3.14,1.43-4.7,2.16-1.1.5-2.22,1-3.31,1.54-1.26.61-2.52,1.21-3.78,1.84L297,29.14c-1.66.82-3.28,1.68-4.9,2.56-4.58,2.44-9.05,5-13.46,7.66-1.85,1.13-3.67,2.27-5.49,3.41-.53.35-1,.67-1.53,1-1.69,1.08-3.38,2.18-5.07,3.35-2.05,1.4-4.11,2.79-6.09,4.21s-4,2.91-6,4.37q-11.84,8.87-22.66,18.81a.42.42,0,0,1-.23.19c-1.79,1.65-3.55,3.33-5.27,5-2.62,2.53-5.17,5.13-7.69,7.72s-5,5.31-7.35,8-4.67,5.35-6.93,8.07-4.44,5.5-6.59,8.31c-.13.19-.27.38-.4.54-2.91,3.8-5.73,7.69-8.41,11.64a.9.9,0,0,1-.14.22c-1.39,2-2.71,4-4,6.07s-2.62,4.12-3.88,6.2c0,.07-.07.1-.1.16-1.26,2-2.45,4-3.61,6.14s-2.42,4.24-3.55,6.39l-.29.53c-1,1.9-2,3.8-3,5.7q-3.54,7-6.66,14.23c-.9,2-1.76,4-2.55,6s-1.63,4-2.39,6.07c-.23.64-.46,1.24-.69,1.87-.7,1.86-1.36,3.73-2,5.63,0,.06,0,.12-.06.19L148.14,217c-.29,1.17-.56,2.34-.79,3.54-.63,2.94-1.23,5.92-1.76,8.89q-1.68,9.26-2.68,18.75c-.2,1.65-.37,3.29-.5,5s-.26,3.16-.4,4.74c-.1,1.27-.16,2.5-.23,3.74-.13,2.3-.23,4.61-.3,6.95-.06,1.17-.1,2.38-.1,3.58,0,1.74-.06,3.51-.06,5.28A270.44,270.44,0,0,0,179,415.25a279.72,279.72,0,0,0,25.91,36.91c0,.06.1.1.13.16,54,65.12,137.62,106.87,231.38,106.87C513.77,559.19,584.21,530.76,636.85,484.2Z" transform="translate(-19 -20)"/><path class="cls-2" d="M534,113.33c0,25.37-15,49.69-40.59,61.3L288.15,267.52a68.93,68.93,0,0,1,7.09-3.7l165.52-74.74a194.29,194.29,0,0,0-112.84-35.64c-83,0-153.49,51-179,122a173.56,173.56,0,0,0,10,139.82,270.44,270.44,0,0,1-37.67-137.8c0-1.77,0-3.54.06-5.28,0-1.2,0-2.41.1-3.58.07-2.34.17-4.65.3-6.95.07-1.24.13-2.47.23-3.74.14-1.58.24-3.16.4-4.74s.3-3.32.5-5q1-9.48,2.68-18.75c.53-3,1.13-5.95,1.76-8.89.23-1.2.5-2.37.79-3.54L156,189.4c0-.07,0-.13.06-.19.67-1.9,1.33-3.77,2-5.63.23-.63.46-1.23.69-1.87.76-2.05,1.56-4.08,2.39-6.07s1.65-4,2.55-6q3.13-7.22,6.66-14.23c1-1.9,2-3.8,3-5.7l.29-.53c1.16-2.15,2.32-4.27,3.55-6.39s2.38-4.11,3.61-6.14c0-.06.07-.09.1-.16,1.26-2.08,2.55-4.14,3.88-6.2s2.65-4,4-6.07a.9.9,0,0,0,.14-.22c2.71-3.95,5.53-7.81,8.41-11.64.13-.16.27-.35.4-.54,2.15-2.81,4.34-5.59,6.59-8.31s4.57-5.41,6.93-8.07,4.87-5.38,7.35-8,5.07-5.19,7.69-7.72c1.72-1.67,3.48-3.35,5.27-5a.42.42,0,0,0,.23-.19q10.83-9.92,22.66-18.81c2-1.46,4-2.91,6-4.37s4-2.81,6.09-4.21c1.66-1.13,3.35-2.24,5.07-3.35.5-.31,1-.63,1.53-1,1.82-1.14,3.64-2.28,5.49-3.41,4.41-2.66,8.88-5.22,13.46-7.66,1.62-.88,3.24-1.74,4.9-2.56l3.48-1.77c1.26-.63,2.52-1.23,3.78-1.84,1.09-.53,2.21-1,3.31-1.54,1.56-.73,3.11-1.46,4.7-2.16A349.27,349.27,0,0,1,347.92,20,340.79,340.79,0,0,1,490.65,51q4.37,2,8.65,4.17a68.71,68.71,0,0,1,27.79,29.19A64.73,64.73,0,0,1,534,113.33Z" transform="translate(-19 -20)"/><path class="cls-3" d="M604.55,273.69l-69.9,31.56L355.81,386c-35.25,15.91-77.36,1.55-94.06-32.14l-.13-.31c-15.54-31.31-3.58-68.26,26.53-86.06l205.21-92.89C519,163,534,138.7,534,113.33a64.73,64.73,0,0,0-6.86-29A68.71,68.71,0,0,0,499.3,55.17C551.44,81,595.41,119.82,626.55,167.1c1.62,2.37,3.15,4.78,4.64,7.21a1.58,1.58,0,0,1,.1.16c2.32,3.7,4.54,7.5,6.66,11.29a1.23,1.23,0,0,1,.13.29c1.32,2.3,2.58,4.61,3.81,6.95C652.06,224.54,636.69,259.2,604.55,273.69Z" transform="translate(-19 -20)"/></svg>