<svg id="Layer_1" data-name="Layer 1" xmlns="http://www.w3.org/2000/svg" xmlns:xlink="http://www.w3.org/1999/xlink" viewBox="0 0 1459 1935"><defs><style>.cls-1{fill:url(#linear-gradient);}.cls-2{fill:url(#linear-gradient-2);}.cls-3{fill:url(#linear-gradient-3);}.cls-4{font-size:293.89px;}.cls-4,.cls-5,.cls-6{fill:#4c0055;font-family:TenorSans, Tenor Sans;}.cls-5{font-size:300.46px;}.cls-6{font-size:139.26px;}.cls-7{letter-spacing:-0.12em;}.cls-8{letter-spacing:0em;}</style><linearGradient id="linear-gradient" x1="516.41" y1="506.05" x2="1661.19" y2="1298.73" gradientUnits="userSpaceOnUse"><stop offset="0.14" stop-color="#f0f"/><stop offset="1" stop-color="#662d91"/></linearGradient><linearGradient id="linear-gradient-2" x1="850.02" y1="705.47" x2="1321.08" y2="-6.23" gradientUnits="userSpaceOnUse"><stop offset="0.25" stop-color="#662d91"/><stop offset="1" stop-color="#f0f"/></linearGradient><linearGradient id="linear-gradient-3" x1="1226.79" y1="868.71" x2="1501.31" y2="86.46" gradientUnits="userSpaceOnUse"><stop offset="0" stop-color="#662d91"/><stop offset="0.05" stop-color="#76289c"/><stop offset="0.21" stop-color="#a61abf"/><stop offset="0.36" stop-color="#cd0fdb"/><stop offset="0.5" stop-color="#e807ef"/><stop offset="0.62" stop-color="#f902fb"/><stop offset="0.72" stop-color="#f0f"/></linearGradient></defs><title>logo 2070x2070</title><path class="cls-1" d="M1747,1098.13c-130,212.95-382.84,357.49-673.4,357.49C650.23,1455.62,307,1148.79,307,770.31,307,417,606.21,126,990.52,89c-3.7,1.52-7.33,3.11-11,4.7-2.55,1.1-5.18,2.21-7.72,3.38-2.94,1.31-5.87,2.62-8.81,4-2.7,1.32-5.4,2.56-8.1,3.87-3.87,1.79-7.65,3.66-11.43,5.59-10.66,5.32-21.08,10.91-31.35,16.71-4.33,2.48-8.57,5-12.82,7.45-1.24.76-2.39,1.45-3.55,2.14-3.94,2.35-7.88,4.76-11.82,7.32-4.78,3-9.57,6.07-14.21,9.18s-9.34,6.35-14,9.52Q828.21,182.23,803,203.94a1,1,0,0,1-.54.41c-4.17,3.59-8.26,7.25-12.28,10.91-6.1,5.52-12,11.18-17.91,16.84s-11.58,11.6-17.14,17.46S744.2,261.23,739,267.17s-10.35,12-15.37,18.15a14.44,14.44,0,0,1-.92,1.17Q712.46,298.92,703,311.9a1.71,1.71,0,0,1-.3.48c-3.25,4.35-6.34,8.77-9.35,13.25s-6.1,9-9,13.53c-.08.14-.16.21-.23.35-2.94,4.41-5.72,8.83-8.42,13.39-2.86,4.55-5.64,9.25-8.26,13.94-.23.42-.47.76-.7,1.18-2.31,4.14-4.63,8.28-6.87,12.42q-8.22,15.33-15.52,31.06c-2.08,4.35-4.09,8.77-6,13.19s-3.78,8.76-5.56,13.25c-.54,1.38-1.08,2.69-1.62,4.07-1.62,4.08-3.16,8.15-4.71,12.29-.07.14-.07.28-.15.41L608,515c-.69,2.55-1.31,5.1-1.85,7.73-1.47,6.42-2.86,12.91-4.1,19.39q-3.93,20.19-6.25,40.94c-.46,3.59-.85,7.18-1.16,10.84-.38,3.45-.62,6.9-.92,10.35-.24,2.76-.39,5.45-.55,8.15-.3,5-.54,10.07-.69,15.18-.15,2.56-.23,5.18-.23,7.8-.08,3.8-.16,7.66-.16,11.53,0,109.27,31.89,211.85,87.8,300.76a612.1,612.1,0,0,0,60.38,80.55c.08.14.23.21.31.35,125.94,142.13,320.76,233.24,539.28,233.24C1460.15,1261.79,1624.32,1199.74,1747,1098.13Z" transform="translate(-307 -85)"/><path class="cls-2" d="M1507.18,288.7c0,55.36-34.9,108.45-94.59,133.78L934.31,625.21a162,162,0,0,1,16.52-8.07L1336.61,454c-73.44-48.87-164.47-77.79-263-77.79-193.43,0-357.75,111.34-417.13,266.24a356.07,356.07,0,0,0-23.7,127.84c0,63.78,17,124.05,47.1,177.34-55.91-88.91-87.8-191.49-87.8-300.76,0-3.87.08-7.73.16-11.53,0-2.62.08-5.24.23-7.8.15-5.11.39-10.15.69-15.18.16-2.7.31-5.39.55-8.15.3-3.45.54-6.9.92-10.35.31-3.66.7-7.25,1.16-10.84q2.31-20.71,6.25-40.94c1.24-6.48,2.63-13,4.1-19.39.54-2.63,1.16-5.18,1.85-7.73l18.38-60.27c.08-.13.08-.27.15-.41,1.55-4.14,3.09-8.21,4.71-12.29.54-1.38,1.08-2.69,1.62-4.07q2.67-6.74,5.56-13.25c1.93-4.42,3.87-8.84,6-13.19q7.29-15.74,15.52-31.06c2.24-4.14,4.56-8.28,6.87-12.42.23-.42.47-.76.7-1.18,2.7-4.69,5.4-9.32,8.26-13.94,2.7-4.49,5.56-9,8.42-13.39.07-.14.15-.21.23-.35,2.93-4.55,5.94-9,9-13.53s6.18-8.83,9.35-13.25a1.71,1.71,0,0,0,.3-.48c6.34-8.63,12.9-17,19.62-25.41a14.44,14.44,0,0,0,.92-1.17c5-6.14,10.12-12.22,15.37-18.15s10.66-11.81,16.14-17.61c5.64-5.86,11.35-11.73,17.14-17.46s11.81-11.32,17.91-16.84c4-3.66,8.11-7.32,12.28-10.91a1,1,0,0,0,.54-.41q25.26-21.65,52.82-41.08c4.63-3.17,9.26-6.35,14-9.52s9.43-6.15,14.21-9.18c3.86-2.49,7.8-4.9,11.82-7.32,1.16-.69,2.31-1.38,3.55-2.14,4.25-2.48,8.49-5,12.82-7.45,10.27-5.8,20.69-11.39,31.35-16.71,3.78-1.93,7.56-3.8,11.43-5.59,2.7-1.31,5.4-2.55,8.1-3.87,2.94-1.38,5.87-2.69,8.81-4,2.54-1.17,5.17-2.28,7.72-3.38,3.63-1.59,7.26-3.18,11-4.7q40.89-3.93,83.09-4c119.14,0,232,24.3,332.65,67.65q10.18,4.46,20.15,9.11c27.26,14.5,50.19,36.17,64.78,63.71A133.92,133.92,0,0,1,1507.18,288.7Z" transform="translate(-307 -85)"/><path class="cls-3" d="M1671.73,638.68,1508.8,707.56,1092,883.86c-82.15,34.72-180.3,3.39-219.21-70.13l-.31-.69c-36.22-68.34-8.34-149,61.85-187.83l478.28-202.73c59.69-25.33,94.59-78.42,94.59-133.78a133.92,133.92,0,0,0-16-63.23c-14.59-27.54-37.52-49.21-64.78-63.71,121.54,56.4,224,141.09,296.59,244.29,3.78,5.18,7.33,10.42,10.81,15.74a1.66,1.66,0,0,1,.23.34c5.41,8.08,10.58,16.36,15.52,24.65a2.12,2.12,0,0,1,.31.62c3.09,5,6,10.08,8.88,15.18C1782.46,531.4,1746.63,607.06,1671.73,638.68Z" transform="translate(-307 -85)"/><text class="cls-4" transform="translate(144.18 1708.34) scale(0.87 1)">EDVICON</text><text class="cls-5" transform="translate(134.16 1706.64) scale(0.88 1)">EDVICON</text><text class="cls-6" transform="translate(243.17 1900.18) scale(0.89 1)">INTERN<tspan class="cls-7" x="570.69" y="0">A</tspan><tspan class="cls-8" x="655.92" y="0">TIONAL</tspan></text></svg>