<svg id="Layer_1" data-name="Layer 1" xmlns="http://www.w3.org/2000/svg" xmlns:xlink="http://www.w3.org/1999/xlink" viewBox="0 0 1926 388"><defs><style>.cls-1{fill:url(#linear-gradient);}.cls-2{fill:url(#linear-gradient-2);}.cls-3{fill:url(#linear-gradient-3);}.cls-4{font-size:117.07px;}.cls-4,.cls-5{fill:#5f006a;font-family:TenorSans, Tenor Sans;}.cls-5{font-size:97.27px;}.cls-6{letter-spacing:-0.12em;}.cls-7{letter-spacing:0em;}</style><linearGradient id="linear-gradient" x1="111.24" y1="181.11" x2="422.35" y2="396.53" gradientUnits="userSpaceOnUse"><stop offset="0.14" stop-color="#f0f"/><stop offset="1" stop-color="#662d91"/></linearGradient><linearGradient id="linear-gradient-2" x1="199.36" y1="234.21" x2="329.8" y2="37.14" gradientUnits="userSpaceOnUse"><stop offset="0.25" stop-color="#662d91"/><stop offset="1" stop-color="#f0f"/></linearGradient><linearGradient id="linear-gradient-3" x1="302.03" y1="280.43" x2="378.95" y2="61.24" gradientUnits="userSpaceOnUse"><stop offset="0" stop-color="#662d91"/><stop offset="0.05" stop-color="#76289c"/><stop offset="0.21" stop-color="#a61abf"/><stop offset="0.36" stop-color="#cd0fdb"/><stop offset="0.5" stop-color="#e807ef"/><stop offset="0.62" stop-color="#f902fb"/><stop offset="0.72" stop-color="#f0f"/></linearGradient></defs><title>web_logo 2017x502</title><path class="cls-1" d="M441.92,346.8C407.17,407.08,339.59,448,261.92,448,148.75,448,57,361.14,57,254,57,154,137,71.61,239.71,61.13c-1,.43-2,.88-2.93,1.33l-2.07,1c-.78.37-1.56.74-2.35,1.13l-2.17,1.1c-1,.51-2,1-3.05,1.58-2.85,1.5-5.64,3.09-8.38,4.73-1.16.7-2.29,1.41-3.43,2.11l-1,.61c-1,.66-2.1,1.34-3.15,2.07-1.28.86-2.56,1.72-3.8,2.6s-2.5,1.79-3.74,2.69q-7.37,5.49-14.12,11.63a.27.27,0,0,1-.14.12c-1.12,1-2.21,2-3.28,3.08-1.63,1.57-3.22,3.17-4.79,4.77s-3.1,3.28-4.58,5-2.91,3.3-4.32,5-2.76,3.4-4.1,5.14l-.25.33c-1.82,2.34-3.57,4.75-5.24,7.19a1.1,1.1,0,0,1-.09.14q-1.29,1.84-2.49,3.75c-.83,1.25-1.64,2.54-2.42,3.83l-.06.1c-.79,1.25-1.53,2.5-2.25,3.79s-1.51,2.62-2.21,3.94c-.06.12-.12.22-.19.34q-.93,1.75-1.83,3.51-2.21,4.35-4.15,8.8c-.56,1.23-1.1,2.48-1.59,3.73s-1,2.48-1.49,3.75c-.14.39-.29.76-.43,1.15-.43,1.16-.85,2.31-1.26,3.48,0,0,0,.08,0,.12l-4.91,17.06c-.19.72-.35,1.45-.5,2.19-.39,1.81-.76,3.65-1.09,5.49q-1.05,5.72-1.67,11.59c-.13,1-.23,2-.31,3.06s-.17,2-.25,2.94c-.06.78-.1,1.54-.15,2.3-.08,1.43-.14,2.85-.18,4.3,0,.72-.06,1.47-.06,2.21,0,1.07-.05,2.17-.05,3.26a166.13,166.13,0,0,0,23.47,85.14A173.6,173.6,0,0,0,172.81,327s.07.06.09.1c33.66,40.24,85.74,66,144.15,66C365.25,393.13,409.13,375.56,441.92,346.8Z" transform="translate(-57 -60)"/><path class="cls-2" d="M377.82,117.66c0,15.68-9.33,30.7-25.29,37.87l-127.85,57.4a41.91,41.91,0,0,1,4.42-2.29l103.12-46.18a121.78,121.78,0,0,0-70.3-22c-51.71,0-95.63,31.52-111.5,75.37a106.41,106.41,0,0,0,6.25,86.39,166.13,166.13,0,0,1-23.47-85.14c0-1.09,0-2.19.05-3.26,0-.74,0-1.49.06-2.21,0-1.45.1-2.87.18-4.3,0-.76.09-1.52.15-2.3.08-1,.14-2,.25-2.94s.18-2.05.31-3.06q.62-5.87,1.67-11.59c.33-1.84.7-3.68,1.09-5.49.15-.74.31-1.47.5-2.19l4.91-17.06s0-.08,0-.12c.41-1.17.83-2.32,1.26-3.48.14-.39.29-.76.43-1.15.48-1.27,1-2.52,1.49-3.75s1-2.5,1.59-3.73q1.95-4.45,4.15-8.8.9-1.75,1.83-3.51c.07-.12.13-.22.19-.34.72-1.32,1.44-2.63,2.21-3.94s1.48-2.54,2.25-3.79l.06-.1c.78-1.29,1.59-2.56,2.42-3.83s1.65-2.5,2.49-3.75a1.1,1.1,0,0,0,.09-.14q2.53-3.66,5.24-7.19l.25-.33c1.34-1.74,2.7-3.46,4.1-5.14s2.85-3.34,4.32-5,3-3.33,4.58-5,3.16-3.2,4.79-4.77c1.07-1,2.16-2.07,3.28-3.08a.27.27,0,0,0,.14-.12q6.75-6.14,14.12-11.63c1.24-.9,2.48-1.8,3.74-2.69s2.52-1.74,3.8-2.6c1-.71,2.08-1.39,3.15-2.07l1-.61c1.14-.7,2.27-1.41,3.43-2.11,2.74-1.64,5.53-3.23,8.38-4.73,1-.55,2-1.07,3.05-1.58l2.17-1.1c.79-.39,1.57-.76,2.35-1.13l2.07-1c1-.45,1.94-.9,2.93-1.33A219.87,219.87,0,0,1,261.92,60a213.91,213.91,0,0,1,88.92,19.15q2.71,1.26,5.39,2.58a42.6,42.6,0,0,1,17.31,18A39.7,39.7,0,0,1,377.82,117.66Z" transform="translate(-57 -60)"/><path class="cls-3" d="M421.8,216.74l-43.55,19.5-111.42,49.9c-22,9.83-48.19,1-58.6-19.85l-.08-.19c-9.68-19.35-2.23-42.17,16.53-53.17l127.85-57.4c16-7.17,25.29-22.19,25.29-37.87a39.7,39.7,0,0,0-4.28-17.89,42.6,42.6,0,0,0-17.31-18,202.06,202.06,0,0,1,79.28,69.15c1,1.47,2,3,2.89,4.46a.44.44,0,0,1,.06.1c1.44,2.28,2.82,4.63,4.15,7a.71.71,0,0,1,.08.18c.82,1.43,1.61,2.85,2.37,4.3C451.4,186.37,441.82,207.79,421.8,216.74Z" transform="translate(-57 -60)"/><text class="cls-4" transform="translate(445 232.51) scale(1.04 1)">EDVICON</text><text class="cls-4" transform="translate(453.08 232.73) scale(1.04 1)">EDVICON</text><text class="cls-5" transform="translate(1074.05 227.68) scale(0.99 1)">INTERN<tspan class="cls-6" x="398.62" y="0">A</tspan><tspan class="cls-7" x="458.15" y="0">TIONAL</tspan></text></svg>