<svg id="Layer_1" data-name="Layer 1" xmlns="http://www.w3.org/2000/svg" xmlns:xlink="http://www.w3.org/1999/xlink" viewBox="0 0 1000 1000"><defs><style>.cls-1{fill:#fff;}.cls-2{fill:url(#linear-gradient);}.cls-3{fill:url(#linear-gradient-2);}.cls-4{fill:url(#linear-gradient-3);}.cls-5{font-size:160.6px;fill:#01c6fe;font-family:PlusJakartaDisplay-Bold, Plus Jakarta Display;font-weight:700;}.cls-6,.cls-7{fill:#0065e2;}.cls-6{letter-spacing:-0.01em;}</style><linearGradient id="linear-gradient" x1="504.12" y1="661" x2="504.12" y2="337.11" gradientUnits="userSpaceOnUse"><stop offset="0" stop-color="#0058c5"/><stop offset="1" stop-color="#0072fe"/></linearGradient><linearGradient id="linear-gradient-2" x1="397.11" y1="450.44" x2="397.11" y2="196" gradientUnits="userSpaceOnUse"><stop offset="0" stop-color="#00bafe"/><stop offset="1" stop-color="#00f2ff"/></linearGradient><linearGradient id="linear-gradient-3" x1="564.33" y1="323.22" x2="661" y2="323.22" xlink:href="#linear-gradient-2"/></defs><title>malith upcourse logo</title><rect class="cls-1" width="1000" height="1000" rx="34.72" ry="34.72"/><path class="cls-2" d="M348.78,337.11C363,364,379.35,392.25,398,421.5c15.85,24.83,31.78,47.8,47.41,68.94-4,25.46,4.93,49.26,20.39,60.89A66.68,66.68,0,0,0,504,563.79h.85c16.39-.33,31.46-6.72,39.28-12.45,15.26-11.17,23.79-35.13,20.16-60.89,15.6-20.89,31.57-43.85,47.42-68.94,18.58-29.4,34.5-57.75,48.14-84.39V490.44c0,56-11.38,85-34.64,114.06S558.6,661.17,504.5,661c-6.26,0-79.2-1.5-125.18-63.37-33.58-45.18-31.53-93.95-30.54-107.19Z"/><path class="cls-3" d="M348.78,196A136.74,136.74,0,0,1,398,222.5c36.41,30.82,45.15,71.84,47.41,85.25V450.44A368.43,368.43,0,0,1,348.78,288.5Z"/><path class="cls-4" d="M661,196a136.74,136.74,0,0,0-49.25,26.5c-36.41,30.82-45.15,71.84-47.42,85.25V450.44A368.3,368.3,0,0,0,661,288.5Z"/><text class="cls-5" transform="translate(115.22 825.23)">Up<tspan class="cls-6" x="222.27" y="0">C</tspan><tspan class="cls-7" x="342.72" y="0">ourse</tspan></text></svg>