<?xml version="1.0" encoding="UTF-8" standalone="no"?>
<svg
   xmlns:dc="http://purl.org/dc/elements/1.1/"
   xmlns:cc="http://creativecommons.org/ns#"
   xmlns:rdf="http://www.w3.org/1999/02/22-rdf-syntax-ns#"
   xmlns:svg="http://www.w3.org/2000/svg"
   xmlns="http://www.w3.org/2000/svg"
   viewBox="0 0 666.66669 666.66669"
   height="666.66669"
   width="666.66669"
   xml:space="preserve"
   id="svg2"
   version="1.1"><metadata
     id="metadata8"><rdf:RDF><cc:Work
         rdf:about=""><dc:format>image/svg+xml</dc:format><dc:type
           rdf:resource="http://purl.org/dc/dcmitype/StillImage" /></cc:Work></rdf:RDF></metadata><defs
     id="defs6"><clipPath
       id="clipPath18"
       clipPathUnits="userSpaceOnUse"><path
         id="path16"
         d="M 33.421,292.06 C 26.177,270.529 22.74,248.636 22.745,227.11 v 0 C 22.766,142.148 76.418,62.913 161.401,34.325 v 0 c 106.51,-35.833 221.903,21.47 257.728,127.982 v 0 c 7.245,21.532 10.684,43.427 10.679,64.954 v 0 c -0.018,84.963 -53.676,164.195 -138.655,192.782 v 0 c -21.512,7.237 -43.393,10.675 -64.9,10.676 v 0 C 141.27,430.722 62.016,377.062 33.421,292.06 m 229.469,43.968 c 47.963,-16.135 78.24,-60.851 78.25,-108.8 v 0 c 0.003,-12.148 -1.937,-24.505 -6.025,-36.656 v 0 C 318.855,142.23 273.534,111.848 225.15,112.326 v 0 c -11.774,0.116 -23.721,2.06 -35.485,6.018 v 0 c -60.109,20.22 -92.447,85.347 -72.228,145.453 v 0 c 11.611,34.512 38.023,59.868 69.785,71.38 v 0 c 23.564,8.541 50.07,9.462 75.668,0.851" /></clipPath><linearGradient
       id="linearGradient34"
       spreadMethod="pad"
       gradientTransform="matrix(790.49792,422.78592,422.78592,-790.49792,-332.08459,-71.44735)"
       gradientUnits="userSpaceOnUse"
       y2="0"
       x2="1"
       y1="0"
       x1="0"><stop
         id="stop24"
         offset="0"
         style="stop-opacity:1;stop-color:#baf257" /><stop
         id="stop26"
         offset="0.02913233"
         style="stop-opacity:1;stop-color:#baf257" /><stop
         id="stop28"
         offset="0.470732"
         style="stop-opacity:1;stop-color:#ff74c8" /><stop
         id="stop30"
         offset="0.68588504"
         style="stop-opacity:1;stop-color:#ff74c8" /><stop
         id="stop32"
         offset="1"
         style="stop-opacity:1;stop-color:#8081f2" /></linearGradient><clipPath
       id="clipPath44"
       clipPathUnits="userSpaceOnUse"><path
         id="path42"
         d="M 33.421,292.061 C -2.41,185.552 54.886,70.156 161.401,34.325 v 0 c 106.51,-35.833 221.903,21.47 257.728,127.982 v 0 c 35.84,106.518 -21.466,221.907 -127.976,257.738 v 0 c -21.512,7.237 -43.392,10.674 -64.9,10.675 v 0 C 141.27,430.723 62.016,377.063 33.421,292.061 M 189.665,118.344 c -60.106,20.22 -92.447,85.349 -72.226,145.453 v 0 c 20.222,60.116 85.347,92.45 145.451,72.231 v 0 c 60.115,-20.223 92.446,-85.345 72.225,-145.456 v 0 C 318.982,142.607 274.246,112.324 226.289,112.32 v 0 c -12.141,-10e-4 -24.48,1.939 -36.624,6.024" /></clipPath><clipPath
       id="clipPath52"
       clipPathUnits="userSpaceOnUse"><path
         id="path50"
         d="M 82.6586,414.732 H 501.154 V -3.76768 H 82.6586 Z" /></clipPath><clipPath
       id="clipPath56"
       clipPathUnits="userSpaceOnUse"><path
         id="path54"
         d="m 254.267,93.587 c -61.797,20.785 -95.042,87.739 -74.255,149.536 20.789,61.802 87.744,95.044 149.54,74.258 61.798,-20.79 95.039,-87.742 74.246,-149.541 C 383.014,106.042 316.065,72.796 254.267,93.587 m 104.337,310.17 C 249.1,440.594 130.471,381.687 93.635,272.18 56.796,162.675 115.701,44.043 225.206,7.208 334.71,-29.632 453.347,29.281 490.178,138.78 527.016,248.289 468.11,366.92 358.604,403.757" /></clipPath><linearGradient
       id="linearGradient68"
       spreadMethod="pad"
       gradientTransform="matrix(812.70099,434.66089,434.66089,-812.70099,-282.1387,-101.53716)"
       gradientUnits="userSpaceOnUse"
       y2="0"
       x2="1"
       y1="0"
       x1="0"><stop
         id="stop58"
         offset="0"
         style="stop-opacity:1;stop-color:#baf257" /><stop
         id="stop60"
         offset="0.02913233"
         style="stop-opacity:1;stop-color:#baf257" /><stop
         id="stop62"
         offset="0.470732"
         style="stop-opacity:1;stop-color:#ff74c8" /><stop
         id="stop64"
         offset="0.68588504"
         style="stop-opacity:1;stop-color:#ff74c8" /><stop
         id="stop66"
         offset="1"
         style="stop-opacity:1;stop-color:#8081f2" /></linearGradient><clipPath
       id="clipPath90"
       clipPathUnits="userSpaceOnUse"><path
         id="path88"
         d="M 74.9263,336.318 H 455.18 V -43.9385 H 74.9263 Z" /></clipPath><clipPath
       id="clipPath94"
       clipPathUnits="userSpaceOnUse"><path
         id="path92"
         d="m 230.849,44.516 c -56.149,18.887 -86.358,79.725 -67.466,135.877 18.887,56.15 79.719,86.359 135.873,67.468 56.153,-18.888 86.367,-79.724 67.473,-135.877 C 347.839,55.83 287.004,25.625 230.849,44.516 m 94.805,281.83 C 226.161,359.817 118.369,306.292 84.899,206.794 51.426,107.292 104.952,-0.497 204.448,-33.966 c 99.501,-33.472 207.286,20.055 240.762,119.551 33.466,99.499 -20.052,207.29 -119.556,240.761" /></clipPath><radialGradient
       id="radialGradient102"
       spreadMethod="pad"
       gradientTransform="matrix(180.15778,-60.597492,-60.597492,-180.15778,265.05435,146.18869)"
       gradientUnits="userSpaceOnUse"
       r="1"
       cy="0"
       cx="0"
       fy="0"
       fx="0"><stop
         id="stop96"
         offset="0"
         style="stop-opacity:1;stop-color:#000000" /><stop
         id="stop98"
         offset="0.768817"
         style="stop-opacity:1;stop-color:#000000" /><stop
         id="stop100"
         offset="1"
         style="stop-opacity:1;stop-color:#575757" /></radialGradient><clipPath
       id="clipPath124"
       clipPathUnits="userSpaceOnUse"><path
         id="path122"
         d="M 29.9527,544.655 H 511.279 V 63.3211 H 29.9527 Z" /></clipPath><clipPath
       id="clipPath128"
       clipPathUnits="userSpaceOnUse"><path
         id="path126"
         d="m 227.325,175.291 c -71.078,23.91 -109.315,100.913 -85.403,171.988 23.911,71.078 100.907,109.318 171.99,85.407 C 384.987,408.773 423.217,331.771 399.313,260.698 375.403,189.615 298.402,151.38 227.325,175.291 m 120.006,356.74 C 221.385,574.4 84.942,506.647 42.576,380.701 0.208,254.755 67.958,118.312 193.904,75.944 319.843,33.575 456.29,101.331 498.654,227.276 541.025,353.222 473.278,489.664 347.331,532.031" /></clipPath><linearGradient
       id="linearGradient142"
       spreadMethod="pad"
       gradientTransform="matrix(878.19727,469.69058,469.69058,-878.19727,-402.91125,-56.237255)"
       gradientUnits="userSpaceOnUse"
       y2="0"
       x2="1"
       y1="0"
       x1="0"><stop
         id="stop130"
         offset="0"
         style="stop-opacity:1;stop-color:#ae7eff" /><stop
         id="stop132"
         offset="0.02913233"
         style="stop-opacity:1;stop-color:#ae7eff" /><stop
         id="stop134"
         offset="0.470732"
         style="stop-opacity:1;stop-color:#ff5be6" /><stop
         id="stop136"
         offset="0.4797574"
         style="stop-opacity:1;stop-color:#ff5be6" /><stop
         id="stop138"
         offset="0.990244"
         style="stop-opacity:1;stop-color:#ffde72" /><stop
         id="stop140"
         offset="1"
         style="stop-opacity:1;stop-color:#ffde72" /></linearGradient><clipPath
       id="clipPath164"
       clipPathUnits="userSpaceOnUse"><path
         id="path162"
         d="m 134.092,475.413 c -6.963,-0.942 -11.849,-7.353 -10.906,-14.321 v 0 c 0.505,-3.73 2.586,-6.852 5.473,-8.815 v 0 L 32.88,292.359 c -2.083,0.924 -4.433,1.315 -6.857,0.987 v 0 c -6.966,-0.941 -11.85,-7.353 -10.907,-14.322 v 0 c 0.941,-6.967 7.353,-11.85 14.32,-10.908 v 0 c 0.642,0.087 1.26,0.235 1.864,0.412 v 0 L 104.498,66.707 c -5.512,-1.998 -9.083,-7.624 -8.267,-13.67 v 0 c 0.943,-6.964 7.356,-11.847 14.32,-10.905 v 0 c 5.907,0.797 10.303,5.535 10.933,11.202 v 0 L 328.38,43.895 c 1.967,-5.567 7.621,-9.186 13.702,-8.363 v 0 c 6.969,0.94 11.853,7.356 10.909,14.324 v 0 c -0.254,1.867 -0.907,3.575 -1.852,5.071 v 0 l 115.093,168.055 c 2.482,-1.653 5.553,-2.455 8.744,-2.023 v 0 c 6.964,0.942 11.848,7.351 10.908,14.316 v 0 c -0.947,6.972 -7.358,11.858 -14.324,10.915 v 0 c -0.575,-0.079 -1.131,-0.208 -1.678,-0.359 v 0 l -11.998,33.32 c 5.133,2.192 8.401,7.597 7.618,13.399 v 0 c -0.946,6.97 -7.358,11.855 -14.328,10.912 v 0 c -1.91,-0.258 -3.653,-0.941 -5.175,-1.922 v 0 l -74.854,102.913 c 3.542,2.683 5.584,7.139 4.949,11.859 v 0 c -0.945,6.971 -7.359,11.852 -14.323,10.911 v 0 c -5.586,-0.756 -9.828,-5.031 -10.803,-10.29 v 0 l -203.089,41.891 c 0.586,1.775 0.802,3.703 0.535,5.679 v 0 c -0.864,6.389 -6.328,11.026 -12.599,11.027 v 0 c -0.569,0 -1.144,-0.038 -1.723,-0.117 m 11.991,-20.099 c 0.424,0.584 0.808,1.196 1.129,1.845 v 0 L 350.77,415.167 c -0.033,-0.745 -0.009,-1.501 0.094,-2.266 v 0 c 0.941,-6.966 7.353,-11.85 14.318,-10.908 v 0 c 0.188,0.025 0.365,0.069 0.547,0.102 v 0 l 45.554,-164.933 c -1.12,-0.617 -2.13,-1.394 -3.006,-2.298 v 0 l -104.393,87.775 c 1.287,2.318 1.877,5.047 1.494,7.876 v 0 c -0.323,2.379 -1.291,4.506 -2.694,6.25 v 0 l 52.253,67.205 -1.399,1.087 -52.064,-66.967 c -2.698,2.529 -6.465,3.87 -10.414,3.336 v 0 c -2.395,-0.324 -4.534,-1.305 -6.285,-2.723 v 0 z m -8.148,-5.051 c 2.77,0.47 5.189,1.806 7.013,3.699 v 0 L 283.464,337.495 c -2.515,-2.695 -3.844,-6.453 -3.315,-10.394 v 0 c 0.524,-3.857 2.729,-7.07 5.771,-9.016 v 0 L 171.291,170.645 c -2.384,1.637 -5.321,2.467 -8.396,2.174 v 0 z M 38.04,273.285 c 1.844,2.553 2.759,5.783 2.303,9.151 v 0 c -0.53,3.913 -2.784,7.168 -5.893,9.104 v 0 l 95.731,159.835 c 1.817,-0.896 3.866,-1.367 5.997,-1.301 v 0 l 24.965,-277.53 c -2.792,-0.663 -5.171,-2.23 -6.889,-4.332 v 0 z m 329.407,129.236 c 0.777,0.254 1.517,0.58 2.213,0.97 v 0 l 74.921,-103.004 c -3.15,-2.72 -4.911,-6.918 -4.309,-11.349 v 0 c 0.501,-3.7 2.552,-6.802 5.402,-8.766 v 0 l -24.763,-42.114 c -1.641,0.469 -3.4,0.62 -5.199,0.377 v 0 c -0.98,-0.133 -1.915,-0.385 -2.802,-0.72 v 0 z m -72.976,-86.325 c 3.501,0.473 6.475,2.329 8.448,4.942 v 0 l 104.22,-87.629 c -1.779,-2.441 -2.69,-5.513 -2.369,-8.732 v 0 L 176.416,163.332 c -0.631,2.459 -1.955,4.596 -3.735,6.223 v 0 L 287.5,317.234 c 1.621,-0.74 3.41,-1.153 5.269,-1.153 v 0 c 0.562,-0.001 1.13,0.037 1.702,0.115 m 128.127,-78.562 24.594,41.828 c 2.211,-1.109 4.762,-1.588 7.398,-1.23 v 0 c 0.557,0.075 1.093,0.197 1.625,0.34 v 0 l 11.995,-33.326 c -4.515,-1.957 -7.555,-6.404 -7.651,-11.412 v 0 l -30.951,-4.186 c -1.079,3.63 -3.692,6.503 -7.01,7.986 M 32.962,269.132 c 1.503,0.675 2.835,1.63 3.946,2.79 v 0 L 153.219,166.763 c -1.46,-2.405 -2.143,-5.305 -1.736,-8.311 v 0 c 0.531,-3.911 2.784,-7.164 5.89,-9.1 v 0 l -42.767,-83.26 c -2.225,1.133 -4.803,1.629 -7.465,1.269 v 0 c -0.319,-0.043 -0.629,-0.109 -0.937,-0.175 v 0 z m 386.163,-55.727 c 6.964,0.943 11.853,7.352 10.911,14.318 v 0 c -0.009,0.066 -0.025,0.127 -0.036,0.193 v 0 l 30.638,4.143 c 0.011,-0.064 0.011,-0.129 0.017,-0.195 v 0 c 0.425,-3.141 1.968,-5.851 4.169,-7.802 v 0 L 350.028,56.44 c -0.338,0.391 -0.696,0.764 -1.076,1.111 v 0 l 62.422,157.28 c 1.818,-0.984 3.883,-1.541 6.047,-1.541 v 0 c 0.562,0 1.131,0.038 1.704,0.115 m -244.68,-60.634 c 1.766,2.473 2.655,5.572 2.29,8.814 v 0 l 228.314,61.436 c 0.719,-2.984 2.467,-5.498 4.802,-7.226 v 0 L 347.495,58.688 c -2.502,1.69 -5.599,2.513 -8.824,2.076 v 0 c -4.308,-0.581 -7.814,-3.256 -9.643,-6.86 v 0 z m -8.644,-5.223 c 2.989,0.404 5.589,1.818 7.515,3.846 v 0 L 328.337,52.246 c -0.617,-1.809 -0.848,-3.781 -0.575,-5.807 v 0 c 0.034,-0.256 0.094,-0.501 0.143,-0.751 v 0 L 121.568,55.1 c -0.011,0.447 -0.045,0.898 -0.107,1.35 v 0 c -0.496,3.672 -2.522,6.757 -5.339,8.723 v 0 l 42.821,83.362 c 1.591,-0.708 3.34,-1.102 5.158,-1.102 v 0 c 0.561,0 1.128,0.037 1.7,0.115" /></clipPath><linearGradient
       id="linearGradient176"
       spreadMethod="pad"
       gradientTransform="matrix(325.24884,325.24884,325.24884,-325.24884,64.102928,81.486587)"
       gradientUnits="userSpaceOnUse"
       y2="0"
       x2="1"
       y1="0"
       x1="0"><stop
         id="stop170"
         offset="0"
         style="stop-opacity:1;stop-color:#4f0895" /><stop
         id="stop172"
         offset="0.99972"
         style="stop-opacity:1;stop-color:#8536ff" /><stop
         id="stop174"
         offset="1"
         style="stop-opacity:1;stop-color:#8536ff" /></linearGradient></defs><g
     transform="matrix(1.3333333,0,0,-1.3333333,0,666.66667)"
     id="g10"><g
       id="g12"><g
         clip-path="url(#clipPath18)"
         id="g14"><g
           id="g20"><g
             id="g22"><path
               id="path36"
               style="fill:url(#linearGradient34);stroke:none"
               d="M 33.421,292.06 C 26.177,270.529 22.74,248.636 22.745,227.11 v 0 C 22.766,142.148 76.418,62.913 161.401,34.325 v 0 c 106.51,-35.833 221.903,21.47 257.728,127.982 v 0 c 7.245,21.532 10.684,43.427 10.679,64.954 v 0 c -0.018,84.963 -53.676,164.195 -138.655,192.782 v 0 c -21.512,7.237 -43.393,10.675 -64.9,10.676 v 0 C 141.27,430.722 62.016,377.062 33.421,292.06 m 229.469,43.968 c 47.963,-16.135 78.24,-60.851 78.25,-108.8 v 0 c 0.003,-12.148 -1.937,-24.505 -6.025,-36.656 v 0 C 318.855,142.23 273.534,111.848 225.15,112.326 v 0 c -11.774,0.116 -23.721,2.06 -35.485,6.018 v 0 c -60.109,20.22 -92.447,85.347 -72.228,145.453 v 0 c 11.611,34.512 38.023,59.868 69.785,71.38 v 0 c 23.564,8.541 50.07,9.462 75.668,0.851" /></g></g></g></g><g
       id="g38"><g
         clip-path="url(#clipPath44)"
         id="g40"><g
           id="g46"><g
             id="g48" /><g
             id="g82"><g
               id="g80"
               clip-path="url(#clipPath52)"><g
                 id="g78"><g
                   id="g76"
                   clip-path="url(#clipPath56)"><g
                     id="g74"><g
                       id="g72"><path
                         id="path70"
                         style="fill:url(#linearGradient68);stroke:none"
                         d="m 254.267,93.587 c -61.797,20.785 -95.042,87.739 -74.255,149.536 20.789,61.802 87.744,95.044 149.54,74.258 61.798,-20.79 95.039,-87.742 74.246,-149.541 C 383.014,106.042 316.065,72.796 254.267,93.587 m 104.337,310.17 C 249.1,440.594 130.471,381.687 93.635,272.18 56.796,162.675 115.701,44.043 225.206,7.208 334.71,-29.632 453.347,29.281 490.178,138.78 527.016,248.289 468.11,366.92 358.604,403.757" /></g></g></g></g></g></g></g><g
           id="g84"><g
             id="g86" /><g
             id="g116"><g
               style="opacity:0.39999402"
               id="g114"
               clip-path="url(#clipPath90)"><g
                 id="g112"><g
                   id="g110"
                   clip-path="url(#clipPath94)"><g
                     id="g108"><g
                       id="g106"><path
                         id="path104"
                         style="fill:url(#radialGradient102);stroke:none"
                         d="m 230.849,44.516 c -56.149,18.887 -86.358,79.725 -67.466,135.877 18.887,56.15 79.719,86.359 135.873,67.468 56.153,-18.888 86.367,-79.724 67.473,-135.877 C 347.839,55.83 287.004,25.625 230.849,44.516 m 94.805,281.83 C 226.161,359.817 118.369,306.292 84.899,206.794 51.426,107.292 104.952,-0.497 204.448,-33.966 c 99.501,-33.472 207.286,20.055 240.762,119.551 33.466,99.499 -20.052,207.29 -119.556,240.761" /></g></g></g></g></g></g></g><g
           id="g118"><g
             id="g120" /><g
             id="g156"><g
               id="g154"
               clip-path="url(#clipPath124)"><g
                 id="g152"><g
                   id="g150"
                   clip-path="url(#clipPath128)"><g
                     id="g148"><g
                       id="g146"><path
                         id="path144"
                         style="fill:url(#linearGradient142);stroke:none"
                         d="m 227.325,175.291 c -71.078,23.91 -109.315,100.913 -85.403,171.988 23.911,71.078 100.907,109.318 171.99,85.407 C 384.987,408.773 423.217,331.771 399.313,260.698 375.403,189.615 298.402,151.38 227.325,175.291 m 120.006,356.74 C 221.385,574.4 84.942,506.647 42.576,380.701 0.208,254.755 67.958,118.312 193.904,75.944 319.843,33.575 456.29,101.331 498.654,227.276 541.025,353.222 473.278,489.664 347.331,532.031" /></g></g></g></g></g></g></g></g></g><g
       id="g158"><g
         clip-path="url(#clipPath164)"
         id="g160"><g
           id="g166"><g
             id="g168"><path
               id="path178"
               style="fill:url(#linearGradient176);stroke:none"
               d="m 134.092,475.413 c -6.963,-0.942 -11.849,-7.353 -10.906,-14.321 v 0 c 0.505,-3.73 2.586,-6.852 5.473,-8.815 v 0 L 32.88,292.359 c -2.083,0.924 -4.433,1.315 -6.857,0.987 v 0 c -6.966,-0.941 -11.85,-7.353 -10.907,-14.322 v 0 c 0.941,-6.967 7.353,-11.85 14.32,-10.908 v 0 c 0.642,0.087 1.26,0.235 1.864,0.412 v 0 L 104.498,66.707 c -5.512,-1.998 -9.083,-7.624 -8.267,-13.67 v 0 c 0.943,-6.964 7.356,-11.847 14.32,-10.905 v 0 c 5.907,0.797 10.303,5.535 10.933,11.202 v 0 L 328.38,43.895 c 1.967,-5.567 7.621,-9.186 13.702,-8.363 v 0 c 6.969,0.94 11.853,7.356 10.909,14.324 v 0 c -0.254,1.867 -0.907,3.575 -1.852,5.071 v 0 l 115.093,168.055 c 2.482,-1.653 5.553,-2.455 8.744,-2.023 v 0 c 6.964,0.942 11.848,7.351 10.908,14.316 v 0 c -0.947,6.972 -7.358,11.858 -14.324,10.915 v 0 c -0.575,-0.079 -1.131,-0.208 -1.678,-0.359 v 0 l -11.998,33.32 c 5.133,2.192 8.401,7.597 7.618,13.399 v 0 c -0.946,6.97 -7.358,11.855 -14.328,10.912 v 0 c -1.91,-0.258 -3.653,-0.941 -5.175,-1.922 v 0 l -74.854,102.913 c 3.542,2.683 5.584,7.139 4.949,11.859 v 0 c -0.945,6.971 -7.359,11.852 -14.323,10.911 v 0 c -5.586,-0.756 -9.828,-5.031 -10.803,-10.29 v 0 l -203.089,41.891 c 0.586,1.775 0.802,3.703 0.535,5.679 v 0 c -0.864,6.389 -6.328,11.026 -12.599,11.027 v 0 c -0.569,0 -1.144,-0.038 -1.723,-0.117 m 11.991,-20.099 c 0.424,0.584 0.808,1.196 1.129,1.845 v 0 L 350.77,415.167 c -0.033,-0.745 -0.009,-1.501 0.094,-2.266 v 0 c 0.941,-6.966 7.353,-11.85 14.318,-10.908 v 0 c 0.188,0.025 0.365,0.069 0.547,0.102 v 0 l 45.554,-164.933 c -1.12,-0.617 -2.13,-1.394 -3.006,-2.298 v 0 l -104.393,87.775 c 1.287,2.318 1.877,5.047 1.494,7.876 v 0 c -0.323,2.379 -1.291,4.506 -2.694,6.25 v 0 l 52.253,67.205 -1.399,1.087 -52.064,-66.967 c -2.698,2.529 -6.465,3.87 -10.414,3.336 v 0 c -2.395,-0.324 -4.534,-1.305 -6.285,-2.723 v 0 z m -8.148,-5.051 c 2.77,0.47 5.189,1.806 7.013,3.699 v 0 L 283.464,337.495 c -2.515,-2.695 -3.844,-6.453 -3.315,-10.394 v 0 c 0.524,-3.857 2.729,-7.07 5.771,-9.016 v 0 L 171.291,170.645 c -2.384,1.637 -5.321,2.467 -8.396,2.174 v 0 z M 38.04,273.285 c 1.844,2.553 2.759,5.783 2.303,9.151 v 0 c -0.53,3.913 -2.784,7.168 -5.893,9.104 v 0 l 95.731,159.835 c 1.817,-0.896 3.866,-1.367 5.997,-1.301 v 0 l 24.965,-277.53 c -2.792,-0.663 -5.171,-2.23 -6.889,-4.332 v 0 z m 329.407,129.236 c 0.777,0.254 1.517,0.58 2.213,0.97 v 0 l 74.921,-103.004 c -3.15,-2.72 -4.911,-6.918 -4.309,-11.349 v 0 c 0.501,-3.7 2.552,-6.802 5.402,-8.766 v 0 l -24.763,-42.114 c -1.641,0.469 -3.4,0.62 -5.199,0.377 v 0 c -0.98,-0.133 -1.915,-0.385 -2.802,-0.72 v 0 z m -72.976,-86.325 c 3.501,0.473 6.475,2.329 8.448,4.942 v 0 l 104.22,-87.629 c -1.779,-2.441 -2.69,-5.513 -2.369,-8.732 v 0 L 176.416,163.332 c -0.631,2.459 -1.955,4.596 -3.735,6.223 v 0 L 287.5,317.234 c 1.621,-0.74 3.41,-1.153 5.269,-1.153 v 0 c 0.562,-0.001 1.13,0.037 1.702,0.115 m 128.127,-78.562 24.594,41.828 c 2.211,-1.109 4.762,-1.588 7.398,-1.23 v 0 c 0.557,0.075 1.093,0.197 1.625,0.34 v 0 l 11.995,-33.326 c -4.515,-1.957 -7.555,-6.404 -7.651,-11.412 v 0 l -30.951,-4.186 c -1.079,3.63 -3.692,6.503 -7.01,7.986 M 32.962,269.132 c 1.503,0.675 2.835,1.63 3.946,2.79 v 0 L 153.219,166.763 c -1.46,-2.405 -2.143,-5.305 -1.736,-8.311 v 0 c 0.531,-3.911 2.784,-7.164 5.89,-9.1 v 0 l -42.767,-83.26 c -2.225,1.133 -4.803,1.629 -7.465,1.269 v 0 c -0.319,-0.043 -0.629,-0.109 -0.937,-0.175 v 0 z m 386.163,-55.727 c 6.964,0.943 11.853,7.352 10.911,14.318 v 0 c -0.009,0.066 -0.025,0.127 -0.036,0.193 v 0 l 30.638,4.143 c 0.011,-0.064 0.011,-0.129 0.017,-0.195 v 0 c 0.425,-3.141 1.968,-5.851 4.169,-7.802 v 0 L 350.028,56.44 c -0.338,0.391 -0.696,0.764 -1.076,1.111 v 0 l 62.422,157.28 c 1.818,-0.984 3.883,-1.541 6.047,-1.541 v 0 c 0.562,0 1.131,0.038 1.704,0.115 m -244.68,-60.634 c 1.766,2.473 2.655,5.572 2.29,8.814 v 0 l 228.314,61.436 c 0.719,-2.984 2.467,-5.498 4.802,-7.226 v 0 L 347.495,58.688 c -2.502,1.69 -5.599,2.513 -8.824,2.076 v 0 c -4.308,-0.581 -7.814,-3.256 -9.643,-6.86 v 0 z m -8.644,-5.223 c 2.989,0.404 5.589,1.818 7.515,3.846 v 0 L 328.337,52.246 c -0.617,-1.809 -0.848,-3.781 -0.575,-5.807 v 0 c 0.034,-0.256 0.094,-0.501 0.143,-0.751 v 0 L 121.568,55.1 c -0.011,0.447 -0.045,0.898 -0.107,1.35 v 0 c -0.496,3.672 -2.522,6.757 -5.339,8.723 v 0 l 42.821,83.362 c 1.591,-0.708 3.34,-1.102 5.158,-1.102 v 0 c 0.561,0 1.128,0.037 1.7,0.115" /></g></g></g></g></g></svg>