<svg xmlns="http://www.w3.org/2000/svg" xmlns:xlink="http://www.w3.org/1999/xlink" viewBox="0 0 488.65869 499.30341"><defs><style>.cls-1{fill:none;}.cls-2{isolation:isolate;}.cls-3{font-size:41.32257px;font-family:Furore, Furore;}.cls-3,.cls-4{fill:#35247f;}.cls-4{font-size:19px;font-family:Montserrat-Thin, Montserrat;letter-spacing:0.20002em;}.cls-5{letter-spacing:0.18999em;}.cls-6{letter-spacing:0.18002em;}.cls-7{letter-spacing:0.16501em;}.cls-8{letter-spacing:0.19999em;}.cls-9{letter-spacing:0.19002em;}.cls-10{letter-spacing:0.18498em;}.cls-11{letter-spacing:0.20004em;}.cls-12{clip-path:url(#clip-path);}.cls-13{fill:url(#linear-gradient);}.cls-14{mix-blend-mode:color-burn;fill:url(#linear-gradient-2);}.cls-15{opacity:0.4;mix-blend-mode:color-dodge;fill:url(#radial-gradient);}.cls-16{mix-blend-mode:soft-light;fill:url(#linear-gradient-3);}.cls-17{fill:url(#New_Gradient_Swatch_2);}</style><clipPath id="clip-path" transform="translate(-6.00049 25.50458)"><path class="cls-1" d="M283.67,67.42862a151.75363,151.75363,0,1,0,95.4439,192.2197A151.75122,151.75122,0,0,0,283.67,67.42862ZM207.9816,292.43532A85.64291,85.64291,0,1,1,316.457,238.56819,85.64588,85.64588,0,0,1,207.9816,292.43532Z"/></clipPath><linearGradient id="linear-gradient" x1="-88.0257" y1="565.67529" x2="370.24658" y2="78.85471" gradientTransform="translate(82.6312 -74.1037) rotate(18.59077)" gradientUnits="userSpaceOnUse"><stop offset="0" stop-color="#baf257"/><stop offset="0.17075" stop-color="#d1c77d"/><stop offset="0.47073" stop-color="#ff74c8"/><stop offset="0.55085" stop-color="#fa75ca"/><stop offset="0.64984" stop-color="#eb76cf"/><stop offset="0.75873" stop-color="#d179d7"/><stop offset="0.87473" stop-color="#ae7ce3"/><stop offset="0.99525" stop-color="#8281f1"/><stop offset="1" stop-color="#8081f2"/></linearGradient><linearGradient id="linear-gradient-2" x1="-45.56485" y1="575.06999" x2="425.57913" y2="74.57586" xlink:href="#linear-gradient"/><radialGradient id="radial-gradient" cx="282.34071" cy="269.8486" r="141.76055" gradientTransform="translate(82.6312 -74.1037) rotate(18.59077)" gradientUnits="userSpaceOnUse"><stop offset="0.76882"/><stop offset="1" stop-color="#575757"/></radialGradient><linearGradient id="linear-gradient-3" x1="-141.70908" y1="571.76377" x2="367.40479" y2="30.9344" gradientTransform="translate(82.6312 -74.1037) rotate(18.59077)" gradientUnits="userSpaceOnUse"><stop offset="0" stop-color="#ae7eff"/><stop offset="0.25667" stop-color="#d86cf2"/><stop offset="0.47073" stop-color="#ff5be6"/><stop offset="0.99024" stop-color="#ffde72"/></linearGradient><linearGradient id="New_Gradient_Swatch_2" x1="114.33756" y1="319.92349" x2="356.90631" y2="77.35473" gradientUnits="userSpaceOnUse"><stop offset="0" stop-color="#4f0895"/><stop offset="0.99972" stop-color="#8536ff"/></linearGradient></defs><title>logo</title><g class="cls-2"><g id="Objects"><text class="cls-3" transform="translate(145.44141 457.44501)">Edvicon</text><text class="cls-4" transform="translate(0 494.38251)">O<tspan class="cls-5" x="19.68408" y="0">P</tspan><tspan x="36.78369" y="0">EN EDU</tspan><tspan class="cls-6" x="136.00146" y="0">C</tspan><tspan class="cls-7" x="152.93066" y="0">A</tspan><tspan class="cls-8" x="169.1377" y="0">TION </tspan><tspan class="cls-5" x="240.12109" y="0">F</tspan><tspan class="cls-8" x="255.68213" y="0">OR ALL </tspan><tspan class="cls-9" x="356.38135" y="0">S</tspan><tspan class="cls-10" x="371.41064" y="0">T</tspan><tspan class="cls-8" x="385.3374" y="0">UDEN</tspan><tspan class="cls-10" x="459.51221" y="0">T</tspan><tspan class="cls-11" x="473.43896" y="0">S</tspan></text><g class="cls-12"><path class="cls-13" d="M283.67,67.4293a151.7533,151.7533,0,1,0,95.4439,192.219A151.75168,151.75168,0,0,0,283.67,67.4293Zm-75.68843,225.006A85.64259,85.64259,0,1,1,316.457,238.56819,85.64561,85.64561,0,0,1,207.9816,292.43532Z" transform="translate(-6.00049 25.50458)"/><path class="cls-14" d="M333.97532,79.57631A156.01459,156.01459,0,1,0,432.10185,277.194,156.00944,156.00944,0,0,0,333.97532,79.57631Zm-77.815,231.32307A88.04785,88.04785,0,1,1,367.68,255.5218,88.04733,88.04733,0,0,1,256.16032,310.89938Z" transform="translate(-6.00049 25.50458)"/><path class="cls-15" d="M309.4014,137.30891A141.75777,141.75777,0,1,0,398.565,316.86671,141.75347,141.75347,0,0,0,309.4014,137.30891Zm-70.70549,210.187a80.00267,80.00267,0,1,1,101.33866-50.31743A80.00173,80.00173,0,0,1,238.69591,347.49592Z" transform="translate(-6.00049 25.50458)"/><path class="cls-16" d="M325.56773-16.09005A179.43876,179.43876,0,1,0,438.42339,211.19447,179.43519,179.43519,0,0,0,325.56773-16.09005ZM236.068,249.96475a101.26693,101.26693,0,1,1,128.26745-63.69582A101.2634,101.2634,0,0,1,236.068,249.96475Z" transform="translate(-6.00049 25.50458)"/></g><path class="cls-17" d="M428.89968,205.22851a9.42278,9.42278,0,0,0-11.93465-7.87209l-8.94825-24.84971a9.48744,9.48744,0,1,0-8.86315-16.69787L343.32717,79.05692a9.49085,9.49085,0,1,0-15.04748-9.30739L176.81756,38.50708a9.49083,9.49083,0,1,0-14.33481,4.883l-71.43152,119.266a9.50911,9.50911,0,1,0-1.178,17.77335l54.591,150.5165a9.49152,9.49152,0,1,0,12.66792,9.974L311.434,347.9594a9.49139,9.49139,0,1,0,16.97366-8.22768l85.8348-125.33522a9.4827,9.4827,0,0,0,14.65725-9.168Zm-13.1813-7.4359a9.49068,9.49068,0,0,0-5.70627,8.51138l-23.08351,3.12156a9.48919,9.48919,0,0,0-5.22806-5.956l18.343-31.19458a9.43491,9.43491,0,0,0,5.51706.91713,9.567,9.567,0,0,0,1.21215-.25383ZM319.109,335.37878a9.46751,9.46751,0,0,0-7.19147,5.11607l-115.2872-73.735a9.44605,9.44605,0,0,0,1.707-6.57347l170.27647-45.81786a9.45105,9.45105,0,0,0,3.5804,5.3886L325.689,336.92646A9.4405,9.4405,0,0,0,319.109,335.37878ZM174.63113,42.134,277.9358,128.99326a9.48126,9.48126,0,0,0,1.83139,14.47611L194.27734,253.42921a9.44564,9.44564,0,0,0-6.26167-1.62093L169.401,44.89191A9.43115,9.43115,0,0,0,174.63113,42.134ZM368.40466,213.0586,198.10011,258.88382a9.45048,9.45048,0,0,0-2.78521-4.64073L280.94606,144.1047a9.4665,9.4665,0,0,0,11.49914-2.91178l77.727,65.3529A9.4414,9.4414,0,0,0,368.40466,213.0586ZM398.096,156.59475a9.47569,9.47569,0,0,0,.81523,15.001l-18.468,31.409a9.38326,9.38326,0,0,0-5.96732.25506L340.57006,80.49808a9.3381,9.3381,0,0,0,1.65026-.72331ZM328.13184,71.0663a9.46322,9.46322,0,0,0,10.74923,9.82542c.13981-.01869.2717-.052.40757-.076L373.2624,203.82186a9.48775,9.48775,0,0,0-2.24167,1.71368l-77.85632-65.46216a9.43934,9.43934,0,0,0-.8938-10.53536l38.96874-50.12088-1.04287-.81047-38.829,49.943a9.46359,9.46359,0,0,0-12.454-.45693L175.47829,41.12438a9.56834,9.56834,0,0,0,.84184-1.3746ZM163.61825,44.06276a9.43131,9.43131,0,0,0,4.47215.97032l18.61928,206.98021a9.45068,9.45068,0,0,0-5.13817,3.23081L94.9,176.88106a9.4795,9.4795,0,0,0-2.67731-13.61436Zm-72.505,135.9164a9.43614,9.43614,0,0,0,2.94233-2.08181l86.744,78.42768a9.4857,9.4857,0,0,0,3.09878,12.98422l-31.89579,62.09481a9.44033,9.44033,0,0,0-5.56782-.94577c-.23773.03205-.46811.08129-.69862.13053Zm66.08207,159.62325a9.44074,9.44074,0,0,0-4.06255-7.51241l31.93575-62.17065a9.45893,9.45893,0,0,0,10.71924-2.13255L311.40206,341.731a9.44334,9.44334,0,0,0-.429,4.3303c.02537.19177.0693.37427.10666.56072Zm170.38368-.999a9.85974,9.85974,0,0,0-.80311-.82983l46.55441-117.29781a9.48279,9.48279,0,0,0,13.918-9.61442c-.00669-.04924-.01869-.0952-.0266-.14444l22.84892-3.08951c.008.04788.008.09657.01336.14513a9.44306,9.44306,0,0,0,3.10888,5.81879Z" transform="translate(-6.00049 25.50458)"/></g></g></svg>