<svg xmlns="http://www.w3.org/2000/svg" xmlns:xlink="http://www.w3.org/1999/xlink" viewBox="0 0 483.93146 120.27563"><defs><style>.cls-1{fill:none;}.cls-2{isolation:isolate;}.cls-3{font-size:30.29603px;font-family:Furore, Furore;}.cls-3,.cls-4{fill:#35247f;}.cls-4{font-size:14.9px;font-family:Montserrat-Thin, Montserrat;letter-spacing:0.2em;}.cls-5{letter-spacing:0.19em;}.cls-6{letter-spacing:0.18004em;}.cls-7{letter-spacing:0.16503em;}.cls-8{letter-spacing:0.19997em;}.cls-9{letter-spacing:0.20003em;}.cls-10{letter-spacing:0.18502em;}.cls-11{letter-spacing:0.18496em;}.cls-12{clip-path:url(#clip-path);}.cls-13{fill:url(#linear-gradient);}.cls-14{mix-blend-mode:color-burn;fill:url(#linear-gradient-2);}.cls-15{opacity:0.4;mix-blend-mode:color-dodge;fill:url(#radial-gradient);}.cls-16{mix-blend-mode:soft-light;fill:url(#linear-gradient-3);}.cls-17{fill:url(#New_Gradient_Swatch_2);}</style><clipPath id="clip-path" transform="translate(-15.9494 10.29479)"><path class="cls-1" d="M72.37963,15.16848A41.57981,41.57981,0,1,0,98.53082,67.83581,41.57915,41.57915,0,0,0,72.37963,15.16848ZM51.64134,76.8193A23.46577,23.46577,0,1,1,81.36312,62.06,23.46658,23.46658,0,0,1,51.64134,76.8193Z"/></clipPath><linearGradient id="linear-gradient" x1="-6.18553" y1="213.24937" x2="119.379" y2="79.86274" gradientTransform="translate(18.8712 -84.5437) rotate(18.59077)" gradientUnits="userSpaceOnUse"><stop offset="0" stop-color="#baf257"/><stop offset="0.17075" stop-color="#d1c77d"/><stop offset="0.47073" stop-color="#ff74c8"/><stop offset="0.55085" stop-color="#fa75ca"/><stop offset="0.64984" stop-color="#eb76cf"/><stop offset="0.75873" stop-color="#d179d7"/><stop offset="0.87473" stop-color="#ae7ce3"/><stop offset="0.99525" stop-color="#8281f1"/><stop offset="1" stop-color="#8081f2"/></linearGradient><linearGradient id="linear-gradient-2" x1="5.44855" y1="215.82347" x2="134.53986" y2="78.69035" xlink:href="#linear-gradient"/><radialGradient id="radial-gradient" cx="95.29319" cy="132.1942" r="38.84175" gradientTransform="translate(18.8712 -84.5437) rotate(18.59077)" gradientUnits="userSpaceOnUse"><stop offset="0.76882"/><stop offset="1" stop-color="#575757"/></radialGradient><linearGradient id="linear-gradient-3" x1="-20.89453" y1="214.91758" x2="118.60036" y2="66.73279" gradientTransform="translate(18.8712 -84.5437) rotate(18.59077)" gradientUnits="userSpaceOnUse"><stop offset="0" stop-color="#ae7eff"/><stop offset="0.25667" stop-color="#d86cf2"/><stop offset="0.47073" stop-color="#ff5be6"/><stop offset="0.99024" stop-color="#ffde72"/></linearGradient><linearGradient id="New_Gradient_Swatch_2" x1="25.9833" y1="84.35093" x2="92.44604" y2="17.8882" gradientUnits="userSpaceOnUse"><stop offset="0" stop-color="#4f0895"/><stop offset="0.99972" stop-color="#8536ff"/></linearGradient></defs><title>web_logo</title><g class="cls-2"><g id="Layer_1" data-name="Layer 1"><text class="cls-3" transform="translate(100.72076 61.79817)">Edvicon</text><text class="cls-4" transform="translate(100.72055 87.87853)">O<tspan class="cls-5" x="15.43652" y="0">P</tspan><tspan x="28.84619" y="0">EN EDU</tspan><tspan class="cls-6" x="106.65332" y="0">C</tspan><tspan class="cls-7" x="119.92969" y="0">A</tspan><tspan class="cls-8" x="132.63965" y="0">TION </tspan><tspan class="cls-5" x="188.30566" y="0">F</tspan><tspan class="cls-9" x="200.50879" y="0">OR ALL </tspan><tspan class="cls-5" x="279.47754" y="0">S</tspan><tspan class="cls-10" x="291.26367" y="0">T</tspan><tspan class="cls-9" x="302.18555" y="0">UDEN</tspan><tspan class="cls-11" x="360.35449" y="0">T</tspan><tspan class="cls-9" x="371.27539" y="0">S</tspan></text><g class="cls-12"><path class="cls-13" d="M72.37963,15.16867A41.57972,41.57972,0,1,0,98.53082,67.83581,41.57927,41.57927,0,0,0,72.37963,15.16867ZM51.64134,76.8193A23.46568,23.46568,0,1,1,81.36312,62.06,23.46652,23.46652,0,0,1,51.64134,76.8193Z" transform="translate(-15.9494 10.29479)"/><path class="cls-14" d="M86.16305,18.4969a42.74729,42.74729,0,1,0,26.88622,54.14635A42.74588,42.74588,0,0,0,86.16305,18.4969ZM64.8421,81.87837A24.12471,24.12471,0,1,1,95.398,66.70516,24.12458,24.12458,0,0,1,64.8421,81.87837Z" transform="translate(-15.9494 10.29479)"/><path class="cls-15" d="M79.42991,34.31537a38.841,38.841,0,1,0,24.43041,49.198A38.83981,38.83981,0,0,0,79.42991,34.31537Zm-19.373,57.59028A21.92037,21.92037,0,1,1,87.82326,78.11891,21.92011,21.92011,0,0,1,60.05693,91.90565Z" transform="translate(-15.9494 10.29479)"/><path class="cls-16" d="M83.85941-7.71525a49.16541,49.16541,0,1,0,30.92194,62.27492A49.16442,49.16442,0,0,0,83.85941-7.71525ZM59.33688,65.18256a27.74668,27.74668,0,1,1,35.1447-17.45237A27.74572,27.74572,0,0,1,59.33688,65.18256Z" transform="translate(-15.9494 10.29479)"/></g><path class="cls-17" d="M112.17189,52.925a2.58183,2.58183,0,0,0-3.27-2.15692l-2.45179-6.80871a2.59951,2.59951,0,1,0-2.42846-4.57514L88.72542,18.35459a2.60045,2.60045,0,1,0-4.123-2.55019L43.10254,7.24411A2.60044,2.60044,0,1,0,39.17487,8.582L19.603,41.26037a2.60544,2.60544,0,1,0-.32278,4.86982L34.23786,87.371a2.60064,2.60064,0,1,0,3.471,2.73282l42.278,1.9288a2.6006,2.6006,0,1,0,4.65071-2.25434L108.15588,55.437a2.59821,2.59821,0,0,0,4.016-2.512Zm-3.61161-2.0374a2.60038,2.60038,0,0,0-1.56349,2.33208L100.672,54.075a2.6,2.6,0,0,0-1.43247-1.63192l5.02589-8.54717a2.58521,2.58521,0,0,0,1.51165.25129,2.62348,2.62348,0,0,0,.33212-.06955Zm-26.47054,37.698a2.594,2.594,0,0,0-1.97043,1.40178L48.53114,69.78434a2.58815,2.58815,0,0,0,.46771-1.8011l46.655-12.55388a2.58958,2.58958,0,0,0,.981,1.47645L83.89263,89.00967A2.58664,2.58664,0,0,0,82.08974,88.58561ZM42.50347,8.23787l28.305,23.79905a2.5978,2.5978,0,0,0,.50179,3.96638L47.88644,66.1318a2.58805,2.58805,0,0,0-1.71567-.44413L41.07044,8.99353A2.5841,2.5841,0,0,0,42.50347,8.23787ZM95.59653,55.07044,48.93386,67.62634a2.58937,2.58937,0,0,0-.76313-1.27154L71.63328,36.17738a2.59378,2.59378,0,0,0,3.15071-.79781L96.08084,53.286A2.58689,2.58689,0,0,0,95.59653,55.07044Zm8.1353-15.47084a2.5963,2.5963,0,0,0,.22337,4.1102l-5.06015,8.60592a2.5711,2.5711,0,0,0-1.635.06988L87.97,18.74946a2.55776,2.55776,0,0,0,.45216-.19819ZM84.562,16.16519a2.59289,2.59289,0,0,0,2.94524,2.69212c.03831-.00512.07445-.01424.11168-.02081l9.30865,33.70311a2.59954,2.59954,0,0,0-.6142.46954L74.98105,35.07282a2.58634,2.58634,0,0,0-.2449-2.88664l10.67726-13.7329-.28574-.22206-10.639,13.68416a2.593,2.593,0,0,0-3.41235-.12519L42.73558,7.96124a2.62109,2.62109,0,0,0,.23066-.37663ZM39.486,8.76634a2.584,2.584,0,0,0,1.22535.26587l5.10159,56.71163a2.5895,2.5895,0,0,0-1.40783.88523L20.65751,45.158a2.59734,2.59734,0,0,0-.73357-3.73028ZM19.62,46.00682a2.58539,2.58539,0,0,0,.80618-.5704L44.19361,66.92524a2.599,2.599,0,0,0,.849,3.55762l-8.7393,17.0137a2.58659,2.58659,0,0,0-1.52556-.25914c-.06513.00878-.12826.02227-.19141.03576ZM37.72615,89.74287A2.58677,2.58677,0,0,0,36.613,87.6845L45.36328,70.65a2.59167,2.59167,0,0,0,2.937-.5843L79.97808,90.32609a2.58756,2.58756,0,0,0-.11754,1.18649c.007.05254.019.10254.02923.15363Zm46.68435-.27371a2.70256,2.70256,0,0,0-.22005-.22737l12.7557-32.13907a2.59824,2.59824,0,0,0,3.81346-2.63431c-.00183-.01349-.00512-.02608-.00729-.03957l6.2605-.84651c.0022.01311.0022.02645.00366.03976a2.58733,2.58733,0,0,0,.85182,1.59432Z" transform="translate(-15.9494 10.29479)"/></g></g></svg>